<svg xmlns="http://www.w3.org/2000/svg" width="208" height="120" viewBox="0 0 208 120">
    <defs>
        <linearGradient id="a" x1="50.008%" x2="50.008%" y1="100.003%" y2="-.107%">
            <stop offset="0%" stop-color="gray" stop-opacity=".25"/>
            <stop offset="54%" stop-color="gray" stop-opacity=".12"/>
            <stop offset="100%" stop-color="gray" stop-opacity=".1"/>
        </linearGradient>
    </defs>
    <g fill="none" fill-rule="evenodd">
        <g fill-rule="nonzero" opacity=".1" transform="translate(133.77)">
            <ellipse cx="19.247" cy="113.744" fill="#3F3D56" rx="3.997" ry="5.261"/>
            <path fill="#3F3D56" d="M22.41 91.237c.56-.978.85-2.088.842-3.216 0-2.912-1.79-5.26-3.997-5.26-2.208 0-3.996 2.354-3.996 5.26a6.367 6.367 0 0 0 .834 3.216 6.612 6.612 0 0 0 0 6.43 6.615 6.615 0 0 0 0 6.43 6.367 6.367 0 0 0-.834 3.216c0 2.912 1.79 5.261 3.996 5.261 2.205 0 3.997-2.355 3.997-5.26a6.367 6.367 0 0 0-.835-3.217 6.615 6.615 0 0 0 0-6.43 6.612 6.612 0 0 0 0-6.43h-.007z"/>
            <ellipse cx="19.247" cy="81.592" fill="#3F3D56" rx="3.997" ry="5.261"/>
            <ellipse cx="19.247" cy="75.16" fill="#3F3D56" rx="3.997" ry="5.261"/>
            <path fill="#F8765E" d="M34.208 31.154c.545-.7 1.042-1.436 1.487-2.204L25.2 27.215l11.358.086a19.391 19.391 0 0 0 .362-15.254l-15.239 7.946L35.737 9.609C32.147 3.377 25.399-.318 18.246.03 11.093.379 4.732 4.713 1.758 11.265a19.344 19.344 0 0 0 2.359 19.889 19.308 19.308 0 0 0-2.183 3.51l13.631 7.123-14.534-4.914a19.342 19.342 0 0 0 3.076 18.078c-6.172 7.893-5.277 19.231 2.057 26.044a19.062 19.062 0 0 0 25.978 0c7.334-6.813 8.23-18.151 2.057-26.044 5.462-6.984 5.462-16.82 0-23.805l.009.008z"/>
            <path fill="#000" d="M.02 43.057a19.234 19.234 0 0 0 4.097 11.902c-6.173 7.892-5.278 19.23 2.057 26.044a19.062 19.062 0 0 0 25.977 0c7.334-6.814 8.23-18.152 2.057-26.044C36.774 51.683.02 40.895.02 43.057z"/>
        </g>
        <g fill-rule="nonzero" opacity=".1" transform="translate(28.525 40.328)">
            <ellipse cx="11.769" cy="68.468" fill="#3F3D56" rx="2.441" ry="3.159"/>
            <path fill="#3F3D56" d="M13.71 54.953c.34-.588.517-1.254.51-1.932 0-1.744-1.09-3.159-2.442-3.159-1.353 0-2.44 1.415-2.44 3.16a3.777 3.777 0 0 0 .508 1.93 3.92 3.92 0 0 0 0 3.862 3.92 3.92 0 0 0 0 3.861 3.765 3.765 0 0 0-.509 1.93c0 1.747 1.09 3.161 2.44 3.161 1.352 0 2.443-1.414 2.443-3.161a3.765 3.765 0 0 0-.51-1.93 3.91 3.91 0 0 0 0-3.86 3.91 3.91 0 0 0 0-3.862z"/>
            <ellipse cx="11.769" cy="49.16" fill="#3F3D56" rx="2.441" ry="3.159"/>
            <ellipse cx="11.769" cy="45.299" fill="#3F3D56" rx="2.441" ry="3.159"/>
            <path fill="#F8765E" d="M2.633 18.872a11.5 11.5 0 0 1-.908-1.323l6.416-1.041-6.939.052A11.47 11.47 0 0 1 .98 7.405l9.303 4.776-8.584-6.246C3.892 2.195 8.014-.021 12.382.189 16.75.399 20.634 3 22.45 6.933a11.452 11.452 0 0 1-1.438 11.939c.52.652.967 1.358 1.333 2.105l-8.327 4.28 8.88-2.946a11.462 11.462 0 0 1-1.886 10.857 11.465 11.465 0 0 1-1.257 15.638c-4.48 4.091-11.389 4.091-15.87 0A11.465 11.465 0 0 1 2.63 33.168a11.46 11.46 0 0 1 0-14.296h.004z"/>
            <path fill="#000" d="M23.516 26.02a11.432 11.432 0 0 1-2.503 7.148 11.465 11.465 0 0 1-1.257 15.638c-4.48 4.091-11.389 4.091-15.87 0A11.465 11.465 0 0 1 2.63 33.168c-1.567-1.959 20.887-8.446 20.887-7.148z"/>
        </g>
        <g fill-rule="nonzero" opacity=".1" transform="translate(79.672 18.689)">
            <ellipse cx="15.612" cy="92.023" fill="#3F3D56" rx="3.273" ry="4.251"/>
            <path fill="#3F3D56" d="M18.203 73.835c.456-.791.692-1.688.682-2.6 0-2.346-1.455-4.25-3.275-4.25-1.819 0-3.275 1.904-3.275 4.25-.01.912.227 1.81.685 2.6a5.278 5.278 0 0 0 0 5.197 5.274 5.274 0 0 0 0 5.195 5.081 5.081 0 0 0-.685 2.6c0 2.346 1.467 4.25 3.275 4.25 1.809 0 3.275-1.904 3.275-4.25a5.097 5.097 0 0 0-.682-2.6 5.285 5.285 0 0 0 0-5.195 5.289 5.289 0 0 0 0-5.197z"/>
            <ellipse cx="15.612" cy="66.04" fill="#3F3D56" rx="3.273" ry="4.251"/>
            <ellipse cx="15.612" cy="60.843" fill="#3F3D56" rx="3.273" ry="4.251"/>
            <path fill="#F8765E" d="M3.366 25.283a15.502 15.502 0 0 1-1.22-1.78l8.601-1.401-9.3.068a15.475 15.475 0 0 1-.3-12.327l12.48 6.423L2.116 7.872C5.047 2.818 10.582-.186 16.453.092 22.324.367 27.546 3.88 29.98 9.187a15.46 15.46 0 0 1-1.972 16.095c.696.879 1.295 1.83 1.786 2.837l-11.163 5.755 11.904-3.971a15.466 15.466 0 0 1-2.527 14.608c5.055 6.378 4.321 15.54-1.686 21.045-6.007 5.505-15.27 5.505-21.278 0-6.007-5.505-6.74-14.667-1.685-21.045a15.466 15.466 0 0 1 0-19.237l.007.008z"/>
            <path fill="#000" d="M31.363 34.902a15.413 15.413 0 0 1-3.355 9.618c5.055 6.377 4.321 15.539-1.686 21.044-6.007 5.505-15.27 5.505-21.278 0C-.963 60.06-1.696 50.897 3.36 44.52c-2.102-2.647 28.004-11.365 28.004-9.618z"/>
        </g>
        <path fill="#3F3D56" fill-rule="nonzero" d="M207.541 115.077c0 1.228-9.09 2.351-24.118 3.219-2.733.155-5.661.304-8.767.443a1013.637 1013.637 0 0 1-17.316.617c-9.69.274-20.404.47-31.785.569a1891.444 1891.444 0 0 1-17.36.075c-54.866 0-99.343-2.202-99.343-4.918 0-2.717 44.477-4.918 99.344-4.918 23.622 0 45.314.41 62.364 1.089l1.864.075h.011c21.477.9 35.106 2.253 35.106 3.749z"/>
        <path fill="#000" fill-rule="nonzero" d="M207.541 115.077c0 1.228-9.09 2.351-24.118 3.219-2.733.155-5.661.304-8.767.443a1013.637 1013.637 0 0 1-17.316.617c-9.69.274-20.404.47-31.785.569a1891.444 1891.444 0 0 1-17.36.075c-54.866 0-99.343-2.202-99.343-4.918 0-2.717 44.477-4.918 99.344-4.918 23.622 0 45.314.41 62.364 1.089l1.864.075h.011c21.477.9 35.106 2.253 35.106 3.749z" opacity=".15"/>
        <path fill="#3F3D56" fill-rule="nonzero" d="M198.689 114.596c0 1.105-9.09 2.117-24.118 2.887-2.731.14-5.662.273-8.766.398-2.685.108-5.497.21-8.438.304-2.85.09-5.81.174-8.878.252-9.692.246-20.405.424-31.786.512a2189.843 2189.843 0 0 1-17.358.067C44.478 119.016 0 117.036 0 114.59s44.478-4.426 99.345-4.426c23.62 0 45.313.368 62.362.98l1.865.067h.012c21.485.822 35.105 2.032 35.105 3.385zM26.132 75.738l-2.525-8.155 60.473-.698 2.477 8.074z"/>
        <path fill="#000" fill-rule="nonzero" d="M26.132 75.738l-2.525-8.155 60.473-.698 2.477 8.074z" opacity=".15"/>
        <path fill="#9BDBE7" fill-rule="nonzero" d="M22.197 75.738l-2.525-8.155 60.473-.698 2.478 8.074z"/>
        <path fill="#3F3D56" fill-rule="nonzero" d="M124.165 64.885c-6.164 0-11.023-2.448-14.575-7.345-3.552-4.896-5.328-10.828-5.328-17.795 0-7.014 1.718-12.934 5.153-17.76 3.435-4.825 8.281-7.236 14.537-7.23 6.634 0 11.633 2.541 14.996 7.626 3.363 5.085 5.045 10.97 5.046 17.655 0 6.637-1.74 12.438-5.221 17.405-3.481 4.966-8.35 7.448-14.608 7.444zm.181-5.508c4.056 0 7.087-1.769 9.093-5.306 2.007-3.537 3.01-7.996 3.01-13.377 0-5.99-1.027-10.894-3.08-14.714-2.054-3.819-5.204-5.73-9.45-5.73-8.07 0-12.105 6.414-12.105 19.242 0 13.258 4.176 19.886 12.528 19.885h.004zm2.03 52.749h-8.915l58.372-96.39h8.748l-58.204 96.39zm51.64.989c-6.256 0-11.135-2.47-14.634-7.412-3.499-4.941-5.255-10.874-5.27-17.798 0-6.967 1.706-12.863 5.117-17.689 3.41-4.825 8.269-7.235 14.573-7.23 6.587 0 11.551 2.542 14.891 7.626 3.34 5.085 5.01 10.97 5.012 17.653 0 6.594-1.73 12.385-5.187 17.373-3.458 4.988-8.293 7.48-14.505 7.477h.004zm.106-5.65c4.036 0 7.05-1.738 9.044-5.215 1.994-3.477 2.99-7.918 2.99-13.323 0-5.785-1.008-10.636-3.026-14.555-2.017-3.918-5.16-5.88-9.43-5.886-8.116 0-12.175 6.414-12.175 19.242-.002 13.16 4.195 19.739 12.593 19.737h.004z"/>
        <path fill="#3F3D56" fill-rule="nonzero" d="M124.165 64.885c-6.164 0-11.023-2.448-14.575-7.345-3.552-4.896-5.328-10.828-5.328-17.795 0-7.014 1.718-12.934 5.153-17.76 3.435-4.825 8.281-7.236 14.537-7.23 6.634 0 11.633 2.541 14.996 7.626 3.363 5.085 5.045 10.97 5.046 17.655 0 6.637-1.74 12.438-5.221 17.405-3.481 4.966-8.35 7.448-14.608 7.444zm.181-5.508c4.056 0 7.087-1.769 9.093-5.306 2.007-3.537 3.01-7.996 3.01-13.377 0-5.99-1.027-10.894-3.08-14.714-2.054-3.819-5.204-5.73-9.45-5.73-8.07 0-12.105 6.414-12.105 19.242 0 13.258 4.176 19.886 12.528 19.885h.004zm2.03 52.749h-8.915l58.372-96.39h8.748l-58.204 96.39zm51.64.989c-6.256 0-11.135-2.47-14.634-7.412-3.499-4.941-5.255-10.874-5.27-17.798 0-6.967 1.706-12.863 5.117-17.689 3.41-4.825 8.269-7.235 14.573-7.23 6.587 0 11.551 2.542 14.891 7.626 3.34 5.085 5.01 10.97 5.012 17.653 0 6.594-1.73 12.385-5.187 17.373-3.458 4.988-8.293 7.48-14.505 7.477h.004zm.106-5.65c4.036 0 7.05-1.738 9.044-5.215 1.994-3.477 2.99-7.918 2.99-13.323 0-5.785-1.008-10.636-3.026-14.555-2.017-3.918-5.16-5.88-9.43-5.886-8.116 0-12.175 6.414-12.175 19.242-.002 13.16 4.195 19.739 12.593 19.737h.004z"/>
        <path fill="#000" fill-rule="nonzero" d="M124.165 64.885c-6.164 0-11.023-2.448-14.575-7.345-3.552-4.896-5.328-10.828-5.328-17.795 0-7.014 1.718-12.934 5.153-17.76 3.435-4.825 8.281-7.236 14.537-7.23 6.634 0 11.633 2.541 14.996 7.626 3.363 5.085 5.045 10.97 5.046 17.655 0 6.637-1.74 12.438-5.221 17.405-3.481 4.966-8.35 7.448-14.608 7.444zm.181-5.508c4.056 0 7.087-1.769 9.093-5.306 2.007-3.537 3.01-7.996 3.01-13.377 0-5.99-1.027-10.894-3.08-14.714-2.054-3.819-5.204-5.73-9.45-5.73-8.07 0-12.105 6.414-12.105 19.242 0 13.258 4.176 19.886 12.528 19.885h.004zm2.03 52.749h-8.915l58.372-96.39h8.748l-58.204 96.39zm51.64.989c-6.256 0-11.135-2.47-14.634-7.412-3.499-4.941-5.255-10.874-5.27-17.798 0-6.967 1.706-12.863 5.117-17.689 3.41-4.825 8.269-7.235 14.573-7.23 6.587 0 11.551 2.542 14.891 7.626 3.34 5.085 5.01 10.97 5.012 17.653 0 6.594-1.73 12.385-5.187 17.373-3.458 4.988-8.293 7.48-14.505 7.477h.004zm.106-5.65c4.036 0 7.05-1.738 9.044-5.215 1.994-3.477 2.99-7.918 2.99-13.323 0-5.785-1.008-10.636-3.026-14.555-2.017-3.918-5.16-5.88-9.43-5.886-8.116 0-12.175 6.414-12.175 19.242-.002 13.16 4.195 19.739 12.593 19.737h.004z" opacity=".15"/>
        <path fill="#9BDBE7" fill-rule="nonzero" d="M118.264 64.885c-6.165 0-11.023-2.448-14.575-7.345-3.552-4.896-5.328-10.828-5.328-17.795 0-7.014 1.717-12.934 5.152-17.76 3.436-4.825 8.281-7.236 14.537-7.23 6.635 0 11.633 2.541 14.996 7.626 3.363 5.085 5.045 10.97 5.047 17.655 0 6.637-1.74 12.438-5.222 17.405-3.48 4.966-8.35 7.448-14.607 7.444zm.18-5.508c4.056 0 7.087-1.769 9.094-5.306 2.006-3.537 3.01-7.996 3.01-13.377 0-5.99-1.027-10.894-3.08-14.714-2.054-3.819-5.204-5.73-9.45-5.73-8.07 0-12.105 6.414-12.105 19.242 0 13.258 4.176 19.886 12.528 19.885h.003zm2.031 52.749h-8.916l58.372-96.39h8.748l-58.204 96.39zm51.64.989c-6.257 0-11.135-2.47-14.634-7.412-3.5-4.941-5.256-10.874-5.27-17.798 0-6.967 1.705-12.863 5.116-17.689 3.411-4.825 8.269-7.235 14.573-7.23 6.588 0 11.551 2.542 14.891 7.626 3.34 5.085 5.011 10.97 5.012 17.653 0 6.594-1.729 12.385-5.187 17.373-3.458 4.988-8.293 7.48-14.504 7.477h.003zm.105-5.65c4.036 0 7.051-1.738 9.045-5.215 1.993-3.477 2.99-7.918 2.99-13.323 0-5.785-1.009-10.636-3.027-14.555-2.017-3.918-5.161-5.88-9.433-5.886-8.117 0-12.175 6.414-12.175 19.242 0 13.16 4.199 19.739 12.596 19.737h.004z"/>
        <path stroke="#3F3D56" stroke-width="4" d="M137.97 114.098c.747-1.384-.101-3.081-1.076-4.317-.976-1.236-2.165-2.52-2.14-4.095.037-2.26 2.437-3.596 4.351-4.796a21.223 21.223 0 0 0 3.912-3.143 5.742 5.742 0 0 0 1.202-1.61c.397-.884.384-1.89.362-2.858a204.927 204.927 0 0 0-.478-9.672"/>
        <path fill="#F8765E" fill-rule="nonzero" d="M147.537 82.954a3.437 3.437 0 0 0-1.718-2.82l-.77 1.525.022-1.847a3.443 3.443 0 1 0 2.466 3.142zM142.237 107.313a3.44 3.44 0 0 1-6.493-1.781 3.442 3.442 0 0 1 6.66-.992l-2.151 1.75 2.37-.552a3.435 3.435 0 0 1-.386 1.575zM140.333 100.324a3.456 3.456 0 0 1-2.484-.893 3.435 3.435 0 0 1-.826-3.95 3.452 3.452 0 0 1 2.21-1.907l-.02 1.414.782-1.542a3.446 3.446 0 0 1 3.608 3.276 3.444 3.444 0 0 1-3.286 3.597l.016.005zM149.208 95.402a3.398 3.398 0 0 1-3.083-1.557 3.47 3.47 0 0 1-.16-3.476 3.405 3.405 0 0 1 2.924-1.84 3.349 3.349 0 0 1 1.824.436l-.602 1.665 1.24-1.2a3.443 3.443 0 0 1 1.016 3.321 3.417 3.417 0 0 1-3.16 2.651z"/>
        <path fill="#000" fill-rule="nonzero" d="M147.146 83.916c-.804.086-1.584.33-2.391.378-.807.049-1.693-.14-2.203-.75-.275-.328-.411-.744-.644-1.102-.22-.334-.52-.61-.877-.803a3.312 3.312 0 0 0 .364 3.617 3.535 3.535 0 0 0 3.52 1.216c1.317-.294 2.34-1.301 2.626-2.585a7.55 7.55 0 0 0-.395.03zM149.222 95.406a3.503 3.503 0 0 1-3.062-1.532 3.414 3.414 0 0 1-.254-3.382c.277.185.514.42.7.694.25.37.4.798.692 1.138.538.632 1.47.837 2.311.8.84-.037 1.653-.274 2.492-.354a5.73 5.73 0 0 1 .358-.021 3.477 3.477 0 0 1-3.237 2.657zM140.407 100.324a3.538 3.538 0 0 1-2.535-.906 3.478 3.478 0 0 1-1.146-2.417 3.425 3.425 0 0 1 .303-1.591c.29.192.543.435.744.717.273.382.445.823.765 1.177.593.654 1.592.886 2.49.864.9-.021 1.712-.23 2.579-.296a3.517 3.517 0 0 1-3.2 2.452zM140.656 107.207c-.754 1.714-2.538 2.443-4.056 1.658-1.517-.786-2.236-2.81-1.633-4.603.257.196.488.434.685.707.296.419.492.894.835 1.283.641.724 1.668 1.022 2.585 1.05.529.005 1.058-.027 1.584-.095z" opacity=".1"/>
        <path stroke="#3F3D56" stroke-width="4" d="M192.069 114.098c.747-1.384-.102-3.081-1.077-4.317-.975-1.236-2.165-2.52-2.14-4.095.037-2.26 2.437-3.596 4.351-4.796a21.223 21.223 0 0 0 3.912-3.143 5.742 5.742 0 0 0 1.202-1.61c.397-.884.384-1.89.363-2.858a204.925 204.925 0 0 0-.479-9.672"/>
        <path fill="#F8765E" fill-rule="nonzero" d="M202.62 82.954a3.437 3.437 0 0 0-1.719-2.82l-.77 1.525.022-1.847a3.443 3.443 0 1 0 2.466 3.142zM196.336 107.313a3.44 3.44 0 0 1-6.494-1.781 3.442 3.442 0 0 1 6.66-.992l-2.151 1.75 2.37-.552a3.435 3.435 0 0 1-.385 1.575zM194.427 100.324a3.45 3.45 0 0 1-2.481-.893 3.437 3.437 0 0 1-.825-3.95 3.45 3.45 0 0 1 2.207-1.907l-.02 1.414.781-1.542h.009a3.448 3.448 0 0 1 3.061 1.58 3.435 3.435 0 0 1 .162 3.435 3.446 3.446 0 0 1-2.9 1.858l.006.005zM203.306 95.402a3.398 3.398 0 0 1-3.082-1.557 3.47 3.47 0 0 1-.161-3.476 3.405 3.405 0 0 1 2.925-1.84 3.349 3.349 0 0 1 1.824.436l-.603 1.665 1.24-1.2a3.443 3.443 0 0 1 1.017 3.321 3.417 3.417 0 0 1-3.16 2.651z"/>
        <path fill="#000" fill-rule="nonzero" d="M202.228 83.916c-.804.086-1.584.33-2.391.378-.807.049-1.693-.14-2.203-.75-.275-.328-.411-.744-.644-1.102-.22-.334-.52-.61-.877-.803a3.312 3.312 0 0 0 .364 3.617 3.535 3.535 0 0 0 3.52 1.216c1.317-.294 2.34-1.301 2.626-2.585a7.55 7.55 0 0 0-.395.03zM203.32 94.423a3.503 3.503 0 0 1-3.062-1.532 3.414 3.414 0 0 1-.253-3.383c.276.185.514.42.7.694.25.37.4.799.692 1.138.537.633 1.47.838 2.31.8.84-.036 1.654-.274 2.492-.353a5.73 5.73 0 0 1 .358-.022 3.477 3.477 0 0 1-3.237 2.658zM194.505 100.324a3.538 3.538 0 0 1-2.535-.906 3.478 3.478 0 0 1-1.146-2.417 3.425 3.425 0 0 1 .304-1.591c.29.192.542.435.743.717.273.382.445.823.765 1.177.594.654 1.592.886 2.491.864.872-.018 1.711-.23 2.578-.296a3.517 3.517 0 0 1-3.2 2.452zM196.721 107.207c-.754 1.714-2.537 2.443-4.055 1.658-1.518-.786-2.236-2.81-1.633-4.603.256.196.487.434.684.707.297.419.492.894.836 1.283.64.724 1.667 1.022 2.584 1.05.53.005 1.058-.027 1.584-.095z" opacity=".1"/>
        <path stroke="#3F3D56" stroke-width="4" d="M20.39 111.148c-.746-1.385.102-3.082 1.077-4.318.975-1.236 2.165-2.52 2.14-4.095-.037-2.26-2.437-3.596-4.351-4.796a21.223 21.223 0 0 1-3.912-3.143 5.742 5.742 0 0 1-1.202-1.61c-.397-.884-.384-1.89-.363-2.858.084-3.229.243-6.453.479-9.672"/>
        <path fill="#F8765E" fill-rule="nonzero" d="M9.84 80.987a3.437 3.437 0 0 1 1.718-2.82l.77 1.525-.022-1.847a3.443 3.443 0 1 1-2.466 3.142zM16.123 104.362a3.44 3.44 0 0 0 6.494-1.781 3.442 3.442 0 0 0-6.66-.992l2.151 1.75-2.37-.552c0 .548.133 1.088.385 1.575zM18.027 97.373a3.456 3.456 0 0 0 2.485-.892 3.435 3.435 0 0 0 .825-3.95 3.452 3.452 0 0 0-2.209-1.908l.02 1.414-.782-1.541a3.446 3.446 0 0 0-3.608 3.275 3.444 3.444 0 0 0 3.285 3.597l-.016.005zM9.153 92.451a3.398 3.398 0 0 0 3.082-1.556 3.47 3.47 0 0 0 .161-3.477 3.405 3.405 0 0 0-2.925-1.84 3.349 3.349 0 0 0-1.815.436l.602 1.665-1.248-1.195A3.443 3.443 0 0 0 5.993 89.8a3.417 3.417 0 0 0 3.16 2.651z"/>
        <path fill="#000" fill-rule="nonzero" d="M10.232 81.949c.803.085 1.583.329 2.39.378.807.048 1.693-.14 2.203-.75.275-.328.411-.744.644-1.102.22-.334.52-.61.877-.803a3.312 3.312 0 0 1-.364 3.617 3.535 3.535 0 0 1-3.52 1.216c-1.317-.294-2.34-1.301-2.626-2.586.132.007.263.016.396.03zM9.139 91.472A3.503 3.503 0 0 0 12.2 89.94a3.414 3.414 0 0 0 .253-3.383c-.276.185-.514.42-.7.694-.25.37-.4.799-.692 1.139-.537.632-1.47.837-2.31.8-.84-.037-1.654-.275-2.492-.354a5.73 5.73 0 0 0-.358-.021 3.477 3.477 0 0 0 3.237 2.657zM17.954 98.357a3.538 3.538 0 0 0 2.535-.906 3.478 3.478 0 0 0 1.146-2.418 3.425 3.425 0 0 0-.304-1.59c-.29.191-.542.435-.743.717-.273.382-.445.823-.765 1.177-.594.654-1.592.886-2.491.864-.872-.018-1.711-.23-2.578-.296a3.517 3.517 0 0 0 3.2 2.452zM17.705 104.257c.754 1.714 2.538 2.443 4.055 1.657 1.518-.786 2.236-2.81 1.634-4.603a3.35 3.35 0 0 0-.685.707c-.297.42-.492.894-.835 1.283-.642.724-1.668 1.022-2.585 1.05-.53.005-1.058-.026-1.584-.094z" opacity=".1"/>
        <path fill="url(#a)" fill-rule="nonzero" d="M121.967 94.78a2.897 2.897 0 0 0-1.118-2.316c-.043-1.697-1.227-3.083-2.748-3.298a3.33 3.33 0 0 0-2.186-2.501 2.723 2.723 0 0 0-.407-.098h-.04l-.07-.01h-.373c-1.552 0-2.844 1.214-3.11 2.815-1.004-.237-1.925.07-2.09.72a.898.898 0 0 0 .028.52c.17.503.724.984 1.474 1.223l.098.03c.049.014.098.025.147.036h.032c-.573 1.25-.087 2.741 1.106 3.389a.572.572 0 0 0-.066.042.925.925 0 0 0-.217.311 4.565 4.565 0 0 0-.42 1.034c-.072.31-.084.633-.18.939-.165.555-.588 1.041-.637 1.632-.022.262.02.571-.163.751-.045.04-.094.077-.145.11-.128.089-.236.205-.318.34a1.088 1.088 0 0 1-.212.3c-.164.127-.436.114-.517.31-.082.196.128.428.08.642-.04.174-.227.254-.362.37a1.322 1.322 0 0 0-.308.598 1.84 1.84 0 0 1-1.543-.401c.073.19.126.388.159.59-.215-.235-.57-.304-.832-.426a2.663 2.663 0 0 1-.887-.673l.474-.067-2.098-3.257-.62-.13.556 1.09a.34.34 0 0 0-.18.234c-.03.12-.038.246-.022.37.03.292.077.582.143.868l.16.766c.014.072.032.143.053.213-.21-.008-.42.016-.622.072a5.366 5.366 0 0 0-1.29-.313.644.644 0 0 0-.291.015.709.709 0 0 0-.272.226c-.362.428-.683.89-.959 1.38-1.127 2.006-2.632 3.757-4.041 5.57-.974.405-1.954.79-2.937 1.171l-2.111.824c-.422.164-.86.333-1.308.303-.203-.013-.449-.044-.563.132a1.122 1.122 0 0 0-.128.28c-.074 0-.148.02-.217.023h-.013c-.134-.34-.25-.705-.506-.953a.316.316 0 0 0-.24.185c-.05.096-.08.202-.139.29-.114.17-.31.254-.452.399-.141.144-.23.37-.382.51a1.497 1.497 0 0 1-.723.287c-.392.094-.77.241-1.124.437-.13.082-.27.148-.416.196-.16.031-.324.037-.487.017l-1.118-.084a.851.851 0 0 0-.298.013.569.569 0 0 0-.362.587c.028.25.155.478.353.629.194.146.409.26.637.339.971.385 1.973.685 2.994.897v.231a4.986 4.986 0 0 0 2.281.556.334.334 0 0 0 .17-.032.388.388 0 0 0 .143-.23 9.626 9.626 0 0 0 .447-2.24c.14-.01.277-.045.403-.106.386-.107.768.163 1.164.207.488.054.942-.236 1.404-.416.067-.026.134-.048.2-.07a2.273 2.273 0 0 1-.46.457c-.193.14-.408.244-.596.39a3.97 3.97 0 0 1-.501.398 2.98 2.98 0 0 1-.386.152 2.59 2.59 0 0 0-.542.28 1.14 1.14 0 0 0-.377.37.515.515 0 0 0-.047.49c.07.16.214.273.384.298.151.027.305.032.458.013.604-.047 1.206-.104 1.809-.16a4.96 4.96 0 0 0 .758-.11c.132-.034.262-.078.394-.113.226-.061.457-.097.69-.106a.56.56 0 0 1 .2.02c.141.047.241.186.384.223a.58.58 0 0 0 .273-.04 6.142 6.142 0 0 1 1.343-.145c.197-.012.428-.05.52-.237.113-.232-.075-.49-.15-.74a2.28 2.28 0 0 1-.061-.485 3.075 3.075 0 0 0-.333-1.153 3.153 3.153 0 0 1-.248-.526 12.966 12.966 0 0 0 2.468-1.28c.445-.283.904-.589 1.407-.692.587-.12 1.19.039 1.768.209 1.375.407 2.727.89 4.05 1.445.634.265 1.267.546 1.915.74.19.262.418.49.678.677.434.287.965.37 1.475.411.689.065 1.381.091 2.073.08.528-.01 1.073-.046 1.545-.293.115-.06.224-.133.324-.218.362.067.733-.131 1.017-.385.376-.327.647-.762.778-1.249.166-.668.038-1.447.44-1.993.106-.146.245-.264.35-.412a1.13 1.13 0 0 0 .181-.672l.018-.028c.091-.215.152-.441.181-.673.048-.182.108-.36.181-.532a16.29 16.29 0 0 0 .532-1.578 8.83 8.83 0 0 0 .246-1.082c.043-.293.069-.587.092-.881a5.42 5.42 0 0 1 .26-1.353c.358-1.044.56-2.137.6-3.242v-.065c1.088-.122 1.907-1.07 1.89-2.19 0-.326-.066-.648-.195-.946.25-.448.38-.956.376-1.471zm-10.23 12.715c.03.113.066.226.102.339-.166-.169-.33-.343-.499-.51.067.021.134.043.199.067.07.029.136.063.2.104h-.003zm-.811-.555c-.988-.877-2.131-1.558-3.143-2.406.543.28 1.086.604 1.628.915.632.37 1.272.724 1.918 1.062a1.58 1.58 0 0 1-.398.422l-.005.007zm.421-2.21l.047-.05v.347c-.088-.03-.18-.06-.266-.093.078-.065.152-.136.221-.21l-.002.007zm-8.696 2.377a8.39 8.39 0 0 0 1.054-1.538c.391.701 1.028 1.206 1.57 1.793a26.623 26.623 0 0 0-2.623-.263l-.001.008z"/>
        <path fill="#2F2E41" fill-rule="nonzero" d="M104.262 97.377l.447.147 1.52 3.64-.671.147z"/>
        <path fill="#FBBEBE" fill-rule="nonzero" d="M89.508 111.175c.123.327.275.646.453.956.515-.086 1.02-.203 1.514-.347-.095-.12-.2-.235-.314-.344a1.492 1.492 0 0 0-.428-.264c-.157-.055-.352-.014-.52-.007-.234.008-.47.01-.705.006z"/>
        <path fill="#2F2E41" fill-rule="nonzero" d="M90.385 111.813c-.339-.103-.547-.433-.685-.75-.138-.319-.25-.665-.512-.9a.305.305 0 0 0-.23.17c-.05.083-.08.18-.138.26-.109.151-.3.225-.439.355-.138.13-.224.326-.372.456a1.514 1.514 0 0 1-.699.26c-.38.082-.749.214-1.094.39a1.908 1.908 0 0 1-.405.168 1.594 1.594 0 0 1-.474.015l-1.088-.076a.881.881 0 0 0-.29.014.504.504 0 0 0-.35.525.81.81 0 0 0 .35.563c.189.13.397.233.618.303.949.344 1.924.612 2.918.803v.207c.69.33 1.45.502 2.221.505.06.005.12-.005.175-.029a.35.35 0 0 0 .14-.205 8.005 8.005 0 0 0 .452-2.279c.02-.196.005-.394-.045-.585-.06-.189.143-.11-.046-.184"/>
        <path fill="#2F2E41" fill-rule="nonzero" d="M112.003 107.059c-3.39.188-6.737-.723-10.132-.82a5.52 5.52 0 0 0-1.259.073c-.432.106-.85.255-1.247.444-1.82.776-3.702 1.418-5.583 2.06l-2.158.737c-.433.147-.88.296-1.34.271-.206-.012-.457-.04-.574.118-.35.476-.184 1.177.047 1.712.076.168.202.362.404.382a1.28 1.28 0 0 0 .413-.096c.393-.096.785.146 1.19.185.5.049.964-.212 1.436-.372.782-.264 1.637-.255 2.46-.381 1.38-.21 2.657-.798 3.853-1.467.455-.254.918-.527 1.439-.62.6-.107 1.219.035 1.808.188a44.35 44.35 0 0 1 4.142 1.293c.705.28 1.428.522 2.165.723a8.501 8.501 0 0 0 4.852-.259c.55-.196 1.13-.543 1.162-1.08.018-.306-.24-.575-.413-.84-.112-.169-.222-.337-.343-.497-.584-.78-1.292-1.811-2.322-1.754z"/>
        <path fill="#000" fill-rule="nonzero" d="M112.003 107.059c-3.39.188-6.737-.723-10.132-.82a5.52 5.52 0 0 0-1.259.073c-.432.106-.85.255-1.247.444-1.82.776-3.702 1.418-5.583 2.06l-2.158.737c-.433.147-.88.296-1.34.271-.206-.012-.457-.04-.574.118-.35.476-.184 1.177.047 1.712.076.168.202.362.404.382a1.28 1.28 0 0 0 .413-.096c.393-.096.785.146 1.19.185.5.049.964-.212 1.436-.372.782-.264 1.637-.255 2.46-.381 1.38-.21 2.657-.798 3.853-1.467.455-.254.918-.527 1.439-.62.6-.107 1.219.035 1.808.188a44.35 44.35 0 0 1 4.142 1.293c.705.28 1.428.522 2.165.723a8.501 8.501 0 0 0 4.852-.259c.55-.196 1.13-.543 1.162-1.08.018-.306-.24-.575-.413-.84-.112-.169-.222-.337-.343-.497-.584-.78-1.292-1.811-2.322-1.754z" opacity=".1"/>
        <path fill="#FBBEBE" fill-rule="nonzero" d="M96.393 111.616c.401.186.805.357 1.211.515.229-.513.656-.868.753-1.453a.184.184 0 0 0 0-.078.123.123 0 0 0-.046-.057 1.843 1.843 0 0 0-.95-.378c-.262-.023-.382.352-.5.615-.042.106-.36.886-.468.836z"/>
        <path fill="#2F2E41" fill-rule="nonzero" d="M96.325 110.9a1.07 1.07 0 0 1-.722-.465c-.07-.119-.142-.28-.282-.27-.14.008-.187.158-.216.283-.094.468-.23.927-.406 1.371a2.576 2.576 0 0 1-.868 1.121c-.182.124-.384.217-.562.348-.149.13-.308.248-.476.354-.118.053-.24.098-.365.133a2.527 2.527 0 0 0-.522.25 1.054 1.054 0 0 0-.355.333.494.494 0 0 0-.03.468.51.51 0 0 0 .339.235c.143.024.29.027.433.01.573-.041 1.144-.091 1.715-.141.241-.015.482-.048.719-.097.125-.03.248-.07.372-.102.214-.054.433-.085.654-.094a.563.563 0 0 1 .19.019c.133.041.226.167.362.197a.57.57 0 0 0 .258-.034c.418-.087.844-.13 1.271-.13.187-.01.408-.045.493-.21.107-.206-.07-.436-.141-.657a2.027 2.027 0 0 1-.06-.43 2.591 2.591 0 0 0-.314-1.025c-.146-.264-.34-.554-.243-.835a.723.723 0 0 0 .097-.285c-.024-.453-1.082-.286-1.34-.346z"/>
        <path fill="#FBBEBE" fill-rule="nonzero" d="M107.173 103.024c-.61-.24-1.099-.672-1.372-1.214-.056-.116-.105-.237-.159-.355a2.753 2.753 0 0 0-.82-1.012.418.418 0 0 0-.304-.115.306.306 0 0 0-.224.213.78.78 0 0 0-.024.332c.032.257.082.513.15.765l.167.677c.021.104.056.206.105.302.071.114.166.215.28.297.152.127.307.248.463.366.087.07.181.13.282.182.165.07.342.116.524.136.684.113 1.38.276 1.956.664 0 0 0-.453-.013-.498a.62.62 0 0 0-.146-.363c-.216-.208-.589-.27-.865-.377z"/>
        <path fill="#000" fill-rule="nonzero" d="M107.173 103.024c-.61-.24-1.099-.672-1.372-1.214-.056-.116-.105-.237-.159-.355a2.753 2.753 0 0 0-.82-1.012.418.418 0 0 0-.304-.115.306.306 0 0 0-.224.213.78.78 0 0 0-.024.332c.032.257.082.513.15.765l.167.677c.021.104.056.206.105.302.071.114.166.215.28.297.152.127.307.248.463.366.087.07.181.13.282.182.165.07.342.116.524.136.684.113 1.38.276 1.956.664 0 0 0-.453-.013-.498a.62.62 0 0 0-.146-.363c-.216-.208-.589-.27-.865-.377z" opacity=".1"/>
        <circle cx="114.59" cy="95.902" r="1" fill="#2F2E41" fill-rule="nonzero"/>
        <path fill="#2F2E41" fill-rule="nonzero" d="M113.765 95.433a.862.862 0 0 0-.635.095.89.89 0 0 0-.216.31c-.18.322-.322.667-.419 1.026-.071.307-.084.628-.179.932-.164.56-.586 1.035-.635 1.619-.021.261.02.569-.163.746-.045.04-.093.075-.144.106a1.125 1.125 0 0 0-.317.34c-.055.12-.13.23-.224.322-.164.127-.434.114-.515.31-.08.196.127.423.079.636-.04.173-.225.254-.358.373-.15.166-.256.372-.306.595a1.837 1.837 0 0 1-1.536-.401c.223.576.229 1.212.238 1.833a.781.781 0 0 1-.142.56c.64.015 1.263.186 1.887.341.267.093.556.093.823 0 .143-.08.27-.186.378-.313.34-.36.696-.746.778-1.248.022-.282.026-.566.014-.849.033-.349.102-.693.206-1.027.18-.693.3-1.402.358-2.117.037-.442.402-.796.595-1.192.358-.746.734-1.52.762-2.355.025-.273-.064-.606-.329-.642z"/>
        <path fill="#000" fill-rule="nonzero" d="M113.765 95.433a.862.862 0 0 0-.635.095.89.89 0 0 0-.216.31c-.18.322-.322.667-.419 1.026-.071.307-.084.628-.179.932-.164.56-.586 1.035-.635 1.619-.021.261.02.569-.163.746-.045.04-.093.075-.144.106a1.125 1.125 0 0 0-.317.34c-.055.12-.13.23-.224.322-.164.127-.434.114-.515.31-.08.196.127.423.079.636-.04.173-.225.254-.358.373-.15.166-.256.372-.306.595a1.837 1.837 0 0 1-1.536-.401c.223.576.229 1.212.238 1.833a.781.781 0 0 1-.142.56c.64.015 1.263.186 1.887.341.267.093.556.093.823 0 .143-.08.27-.186.378-.313.34-.36.696-.746.778-1.248.022-.282.026-.566.014-.849.033-.349.102-.693.206-1.027.18-.693.3-1.402.358-2.117.037-.442.402-.796.595-1.192.358-.746.734-1.52.762-2.355.025-.273-.064-.606-.329-.642z" opacity=".1"/>
        <path fill="#2F2E41" fill-rule="nonzero" d="M112.063 109.055c-.694-.326-1.202-.932-1.763-1.452-1.072-.992-2.382-1.693-3.508-2.623-.746-.616-1.413-1.332-2.234-1.848a5.6 5.6 0 0 0-2.393-.827.674.674 0 0 0-.293.014.7.7 0 0 0-.272.213 8.387 8.387 0 0 0-.966 1.308c-1.427 2.387-3.454 4.395-5.134 6.616a.294.294 0 0 0-.02.402l.341.66c.191.368.498.799.902.726.186-.053.352-.157.479-.3l1.534-1.447 1.608-1.515c.942-.89 1.9-1.797 2.515-2.931.48.82 1.332 1.357 1.917 2.109.222.285.402.6.6.902.32.485.681.94 1.042 1.394l1.846 2.321c.233.33.522.62.854.854.437.272.97.345 1.484.39.692.062 1.388.087 2.084.074.53-.009 1.083-.042 1.552-.275.47-.233.868-.712.843-1.233a1.813 1.813 0 0 0-.265-.77c-.652-1.192-1.515-2.188-2.753-2.762z"/>
        <circle cx="114.59" cy="95.902" r="1" fill="#E8E8F0" fill-rule="nonzero"/>
        <path fill="#FBBEBE" fill-rule="nonzero" d="M115.037 96.595c.154.31.181.67.075 1a3.881 3.881 0 0 1-.44.92c-.16.296-.353.572-.574.825 1.058.052 2.083-.366 3.016-.874.752-.4 1.502-.91 1.902-1.673a.875.875 0 0 1-.7-.13 2.631 2.631 0 0 1-.538-.504l-.53-.6a2.399 2.399 0 0 1-.327-.435 1.209 1.209 0 0 1-.14-.698c-.211.223-.447.42-.703.588-.379.25-.793.43-1.176.677-.135.088-.435.23-.357.4.077.17.385.312.492.504z"/>
        <path fill="#000" fill-rule="nonzero" d="M115.037 96.595c.154.31.181.67.075 1a3.881 3.881 0 0 1-.44.92c-.16.296-.353.572-.574.825 1.058.052 2.083-.366 3.016-.874.752-.4 1.502-.91 1.902-1.673a.875.875 0 0 1-.7-.13 2.631 2.631 0 0 1-.538-.504l-.53-.6a2.399 2.399 0 0 1-.327-.435 1.209 1.209 0 0 1-.14-.698c-.211.223-.447.42-.703.588-.379.25-.793.43-1.176.677-.135.088-.435.23-.357.4.077.17.385.312.492.504z" opacity=".1"/>
        <path fill="#E8E8F0" fill-rule="nonzero" d="M114.654 95.514a.841.841 0 0 0 0 .922c.024.034.12.245.166.247a.148.148 0 0 0 .101-.055c.2-.224.388-.46.562-.708.175-.252.428-.429.714-.5.347-.058.681.138.985.326.131.07.245.17.333.294.064.123.102.26.111.4.087.844.12 1.693.1 2.542.016.612-.022 1.225-.113 1.829-.057.312-.141.616-.181.931-.03.278-.041.557-.035.836v1.168c-.007.214.007.429.043.64.069.25.149.498.24.741.082.29.137.585.167.885l.15 1.21c.048.382.083.798-.135 1.104-.096.14-.226.25-.332.388-.374.506-.25 1.24-.416 1.87a2.386 2.386 0 0 1-.72 1.177c-.265.239-.607.428-.95.354-.46-.092-.737-.604-.864-1.087-.126-.484-.166-1.011-.443-1.417-.223-.334-.567-.543-.878-.782-.31-.239-.616-.545-.684-.949-.03-.177-.012-.354-.028-.531a1.258 1.258 0 0 0-.735-1.027c-.236-.097-.528-.133-.664-.354a1.7 1.7 0 0 0 .69-.99c.104-.404.16-.82.167-1.239l.08-1.405c.035-.629.051-1.252.31-1.817.117-.251.261-.488.38-.738.161-.35.298-.712.41-1.084.187-.575.377-1.152.545-1.734.067-.283.167-.554.299-.81.154-.265.359-.584.625-.637z"/>
        <path fill="#2F2E41" fill-rule="nonzero" d="M111.199 105.233l.481.013.103-.582c.014-.116.048-.23.101-.34.08-.114.173-.223.277-.324.475-.536.44-1.248.557-1.899.156-.868.61-1.682 1.06-2.482l.935-1.668c.083-.137.15-.28.2-.428.04-.162.06-.328.057-.493 0-.257.105-1.195.112-1.453 0-.096-.261-.043-.316-.127-.117-.184-.278.316-.498.426a1.002 1.002 0 0 0-.43.504c-.203.42-.326.863-.514 1.285a2.626 2.626 0 0 1-.874 1.135c-.19.136-.412.242-.593.386-.583.46-.638 1.187-.658 1.834-.014.402-.108 4.213 0 4.213z"/>
        <path fill="#2F2E41" fill-rule="nonzero" d="M116.532 95.453c-.356.148-.563.556-.665.953-.101.396-.144.815-.34 1.168-.457.827-1.621 1.068-1.944 1.961a3.72 3.72 0 0 0-.13.927c-.057.64-.26 1.259-.32 1.898-.032.498-.021.997.033 1.493l.408 5.048c.08.744.038 1.496-.123 2.225.419.062.846-.01 1.223-.21.384-.185.733-.43 1.1-.641.634-.371 1.332-.621 1.885-1.113.1-.08.187-.18.255-.29.089-.213.149-.437.178-.666.047-.179.107-.354.179-.523.205-.509.383-1.029.535-1.557.104-.35.185-.708.244-1.07.045-.287.068-.578.093-.868a5.29 5.29 0 0 1 .258-1.334c.354-1.029.554-2.107.594-3.198a1.664 1.664 0 0 0-.03-.471 2.568 2.568 0 0 0-.246-.534c-.17-.332-.271-.697-.432-1.033-.357-.76-.997-1.336-1.665-1.82-.343-.236-.719-.492-1.09-.345z"/>
        <path fill="#FBBEBE" fill-rule="nonzero" d="M108.722 102.896a2.936 2.936 0 0 1-.78-.573c-.103-.116-.18-.246-.292-.36a1.937 1.937 0 0 0-.982-.541 4.9 4.9 0 0 0-1.138-.106 2.089 2.089 0 0 0-.756.089.748.748 0 0 0-.502.52c-.056.294.143.58.382.768.222.175.483.298.763.359.228.038.458.064.69.078 1.357.137 2.568.85 3.757 1.5 1.045.57 2.11 1.103 3.195 1.6.043-.314.061-.63.054-.947 0-.236-.018-.597-.25-.735-.269-.163-.717-.2-1.015-.297a16.454 16.454 0 0 1-3.126-1.355z"/>
        <circle cx="114.59" cy="92.951" r="2.459" fill="#FBBEBE" fill-rule="nonzero"/>
        <path fill="#2F2E41" fill-rule="nonzero" d="M117.757 98.684c-.213.283-.388.59-.52.915-.333.645-.853 1.197-1.112 1.879-.275.708-.265 1.552-.797 2.11a.728.728 0 0 0-.233.319 1.495 1.495 0 0 1-.028.23c-.076.204-.428.213-.494.42-.018.06 0 .126-.032.188-.054.133-.239.152-.365.233-.26.167-.199.554-.398.794a.732.732 0 0 1-.67.222 2.578 2.578 0 0 1-.697-.246.653.653 0 0 0-.25-.073.529.529 0 0 0-.288.092c-.496.297-.73.886-.725 1.443.035.556.174 1.101.412 1.611.028.088.075.17.138.24.163.164.45.138.67.046.204-.115.423-.207.65-.274.415-.072.822.199 1.242.176.308-.044.597-.164.839-.35a4.582 4.582 0 0 0 1.132-.91c.183-.228.319-.487.48-.73.206-.297.433-.582.678-.852l1.548-1.787c.155-.169.295-.35.416-.543.14-.26.249-.533.325-.815.166-.47.274-.958.321-1.452.008-.41-.03-.818-.114-1.22-.052-.399-.164-.789-.332-1.159-.345-.657-1.164-1.202-1.796-.507z"/>
        <path fill="#F86D70" fill-rule="nonzero" d="M122.95 95.09a2.597 2.597 0 0 0-1.085-2.12c-.021-1.513-1.149-2.79-2.665-3.016-.292-1.434-1.587-2.451-3.067-2.412-1.48.04-2.717 1.125-2.931 2.572-.975-.217-1.866.065-2.028.658-.174.62.522 1.346 1.553 1.621.322.09.659.124.993.098a3.06 3.06 0 0 0 2.1 1.29 3.1 3.1 0 0 0 2.288 2.332c.155.372.397.703.706.966 0 .072-.012.146-.012.222-.03.72.34 1.398.967 1.767a2.007 2.007 0 0 0 2.034 0 1.956 1.956 0 0 0 .967-1.767c0-.297-.065-.59-.19-.86a2.61 2.61 0 0 0 .37-1.35z"/>
        <path fill="#000" fill-rule="nonzero" d="M110.854 89.895c.161-.589 1.038-.868 2.015-.654.234-1.458 1.5-2.537 2.996-2.557h.2a2.977 2.977 0 0 0-.864-.127c-1.497.02-2.762 1.1-2.996 2.558-.969-.215-1.854.065-2.015.653-.172.616.52 1.336 1.543 1.609a3 3 0 0 0 .582.098c-.971-.28-1.625-.978-1.46-1.58zM118.705 97.394c0-.078 0-.153.012-.229a2.624 2.624 0 0 1-.697-.986 3.13 3.13 0 0 1-2.258-2.386 3 3 0 0 1-2.07-1.318c-.193.015-.386.01-.577-.016a2.991 2.991 0 0 0 1.995 1.213 3.119 3.119 0 0 0 2.258 2.384c.154.38.392.719.697.988 0 .074-.012.15-.012.227-.018 1.121.851 2.047 1.947 2.073a2.07 2.07 0 0 1-1.295-1.95z" opacity=".1"/>
        <ellipse cx="115.138" cy="93.9" fill="#FBBEBE" fill-rule="nonzero" rx="1" ry="1" transform="rotate(-37.22 115.138 93.9)"/>
        <path fill="#F8765E" fill-rule="nonzero" d="M57.008 106.463l2.252-1.379a5.587 5.587 0 0 0-1.152-1.435l-4.246 1.375 3.327-2.037a5.224 5.224 0 0 0-5.357.095c-1.644 1.015-2.652 2.857-2.652 4.847 0 3.111 2.423 3.219 5.41 3.219s5.41-.108 5.41-3.219a5.787 5.787 0 0 0-.465-2.288l-2.527.822z"/>
        <path fill="#000" fill-rule="nonzero" d="M58.213 109.592a4.51 4.51 0 0 0-.858-.612c-.438-.266-.894-.536-1.412-.626-.455-.079-.924-.011-1.387-.036a3.394 3.394 0 0 1-2.125-.884c-.331-.31-.591-.691-.99-.929a2.35 2.35 0 0 0-1.479-.246 3.921 3.921 0 0 0-.438.081 4.844 4.844 0 0 0-.344 1.792c0 2.915 2.605 3.016 5.817 3.016 1.56 0 2.974-.024 4.02-.382l-.182-.295a4.08 4.08 0 0 0-.622-.88z" opacity=".1"/>
    </g>
</svg>
