<svg xmlns="http://www.w3.org/2000/svg" width="184" height="130" viewBox="0 0 184 130">
    <defs>
        <linearGradient id="a" x1="49.995%" x2="49.995%" y1="100.003%" y2="0%">
            <stop offset="0%" stop-color="gray" stop-opacity=".25"/>
            <stop offset="54%" stop-color="gray" stop-opacity=".12"/>
            <stop offset="100%" stop-color="gray" stop-opacity=".1"/>
        </linearGradient>
        <linearGradient id="b" x1="49.985%" x2="49.985%" y1="100%" y2=".005%">
            <stop offset="0%" stop-color="gray" stop-opacity=".25"/>
            <stop offset="54%" stop-color="gray" stop-opacity=".12"/>
            <stop offset="100%" stop-color="gray" stop-opacity=".1"/>
        </linearGradient>
    </defs>
    <g fill="none" fill-rule="evenodd" transform="translate(-9 -10)">
        <ellipse cx="69.028" cy="137.083" fill="#F8765E" fill-rule="nonzero" opacity=".1" rx="16.528" ry="2.917"/>
        <ellipse cx="157.986" cy="137.083" fill="#F8765E" fill-rule="nonzero" opacity=".1" rx="19.931" ry="2.917"/>
        <path fill="#F8765E" fill-rule="nonzero" d="M10.074 65.139h17.148V88.42H11.33c-.042.24-.083.48-.127.72h16.02v18.777c-.029-.009-.054-.019-.08-.029a31.136 31.136 0 0 1-1.353-.569l-.287-.13c-.45-.211-.901-.436-1.352-.673a28.104 28.104 0 0 1-7.208-5.5c-.057-.055-.111-.114-.169-.168a28.912 28.912 0 0 1-.802-.902l-.288-.337c-.307-.375-.604-.76-.893-1.151-.043-.057-.083-.114-.127-.168a25.028 25.028 0 0 1-2.906-5.235c-.024-.055-.044-.116-.066-.168a22.492 22.492 0 0 1-.617-1.8 13.516 13.516 0 0 1-.216-.77 4.221 4.221 0 0 1-.063-.229c-.96-3.731-1.073-7.607-1.073-11.456v-1.347c0-1.556.019-3.123.046-4.689 0-.405.017-.81.025-1.216a158.259 158.259 0 0 1 .14-3.96c0-.166.009-.33.026-.495.04-.6.074-1.194.115-1.786zM27.222 39.861h-8.75a69.97 69.97 0 0 1 4.654-6.758 84.534 84.534 0 0 1 4.096-4.909v11.667z" opacity=".1"/>
        <path fill="#F8765E" fill-rule="nonzero" d="M27.222 40.833V65.14h-17.5c0-.07.012-.142.018-.212.015-.192.03-.385.048-.575.019-.224.04-.45.062-.669.023-.218.047-.486.073-.728.026-.242.05-.488.08-.73.029-.243.055-.485.086-.725.031-.241.059-.485.092-.726l.08-.6c.04-.282.082-.566.127-.847 0-.041.012-.085.02-.125a56.075 56.075 0 0 1 1.288-6.102 44.082 44.082 0 0 1 2.17-6.183c.933-2.1 2.025-4.13 3.267-6.075l10.09-.009zM32.083 66.72v22.918h36.018V66.72H32.083zm0 23.625v19.68c.206.044.41.085.613.12a19.301 19.301 0 0 0 .997.164c.11.018.223.033.333.048.277.038.553.07.83.094.132.014.265.025.398.035l.32.025c.175.013.348.023.519.028.106 0 .212.01.322.014H37.6c.144 0 .287 0 .428-.014h.01c.098 0 .197 0 .297-.013a.698.698 0 0 0 .083 0c.083 0 .166 0 .246-.012h.058l.557-.043c.183-.016.367-.038.553-.058l.38-.044a33.226 33.226 0 0 0 4.56-.968c3.36-.934 6.646-2.241 10.004-3.199 4.342-1.234 9.14-1.84 13.335-.331V90.345H32.083zm36.018-49.138v-30.51A46.435 46.435 0 0 0 56.4 12.066c-9.12 2.284-17.304 7.239-24.316 13.567v15.572h1.808v.708h-1.808v24.1h36.018V41.914H41.313v-.707h26.788zM114.364 30.9c-2.256-.08-4.5-.792-6.528-1.892-3.88-2.104-6.978-5.352-10.441-8.094-7.195-5.71-16.117-9.156-25.271-10.01v30.302h51.417l.128-.134-9.305-10.172zm4.684-.828l4.967 5.434v-6.859c-1.663.206-3.12.694-4.96 1.418l-.007.007zm4.967 84.84V90.345h-10.583c-.028-.104-.056-.21-.09-.316.032.106.059.212.089.316h-41.3v17.767c.392.29.779.595 1.163.905.413.331.822.68 1.233 1.024l.413.34c.198.167.397.332.598.488.4.322.802.64 1.208.954.201.166.408.315.612.47a83.307 83.307 0 0 0 10.24 6.678c.801.442 1.61.873 2.424 1.294a79.612 79.612 0 0 0 4.13 1.978h.001a91.734 91.734 0 0 0 24.26 7.046c1.859.274 3.726.489 5.6.646V114.91h.166l-.164.002zM72.13 41.914v24.099h51.89V41.914h-51.89zm0 24.806v22.918h51.89V66.72h-51.89zm55.918-38.102v7.65l6.34-6.934a69.65 69.65 0 0 0-6.34-.724v.008zm0 38.11v22.91h50.47V66.72l-50.47.009zm50.286 50.004l.178-26.387h-50.464v39.853c3.251.136 6.507.098 9.754-.116h.056a80.736 80.736 0 0 0 4.63-.424h.036a85.481 85.481 0 0 0 23.794-6.33l12.016-6.596zm9.916-46.238a61.164 61.164 0 0 0-1.77-3.764h-3.937v22.908h9.956c-.005-6.487-1.652-13.114-4.244-19.152l-.005.008zm-5.707 19.86v22.695c2.805-2.68 5.174-5.747 6.88-9.252 2.052-4.221 2.991-8.792 3.068-13.447l-9.948.004zm0-30.303v5.964h3.569a64.567 64.567 0 0 0-3.564-5.972l-.005.008zm-34.229-26.937c-.262-.099-.525-.2-.789-.298a72.211 72.211 0 0 0-8.525-2.554l-9.7 10.614-.187.197.125.136h34.524a73.919 73.919 0 0 0-15.443-8.103l-.005.008zm16.46 8.809h-36.018l-.708.646v23.444H178.526V54.657a71.83 71.83 0 0 0-13.746-12.743l-.005.009z" opacity=".1"/>
        <path fill="#F8765E" fill-rule="nonzero" d="M27.222 52.5v11.667h-17.5c0-.068.012-.138.018-.206.015-.186.03-.372.048-.557.019-.216.04-.435.062-.647.023-.212.047-.47.073-.706.026-.234.05-.472.08-.707.029-.234.055-.47.086-.702.031-.233.059-.47.092-.702l.08-.581c.04-.274.082-.55.127-.82 0-.041.012-.083.02-.122.315-1.99.745-3.964 1.288-5.91l15.526-.007zM10.074 65.139h17.148V88.42H11.33c-.042.24-.083.48-.127.72h16.02v18.777c-.029-.009-.054-.019-.08-.029a31.136 31.136 0 0 1-1.353-.569l-.287-.13c-.45-.211-.901-.436-1.352-.673a28.104 28.104 0 0 1-7.208-5.5c-.057-.055-.111-.114-.169-.168a28.912 28.912 0 0 1-.802-.902l-.288-.337c-.307-.375-.604-.76-.893-1.151-.043-.057-.083-.114-.127-.168a25.028 25.028 0 0 1-2.906-5.235c-.024-.055-.044-.116-.066-.168a22.492 22.492 0 0 1-.617-1.8 13.516 13.516 0 0 1-.216-.77 4.221 4.221 0 0 1-.063-.229c-.96-3.731-1.073-7.607-1.073-11.456v-1.347c0-1.556.019-3.123.046-4.689 0-.405.017-.81.025-1.216a158.259 158.259 0 0 1 .14-3.96c0-.166.009-.33.026-.495.04-.6.074-1.194.115-1.786zM44.722 44.802V65.14H32.083V44.802h1.802v-6.885h7.397v6.885z" opacity=".1"/>
        <path fill="#F8765E" fill-rule="nonzero" d="M32.083 65.139h12.639v23.333H32.083zM32.083 89.444h12.64V108.7c-1.492.433-3.01.76-4.547.976l-.378.047c-.185.022-.37.04-.551.059-.183.018-.371.032-.555.043h-.058c-.08 0-.166.01-.244.012h-.084c-.1 0-.199.01-.298.013-.141.009-.282.01-.426.012H36.41l-.32-.012c-.165 0-.344-.018-.516-.03l-.318-.023-.396-.037a16.696 16.696 0 0 1-.828-.095l-.331-.047-.166-.024c-.276-.043-.55-.09-.828-.144-.204-.035-.406-.078-.611-.12l-.012-19.885zM112.778 41.806h10.694v23.333h-10.694zM123.472 65.139v23.333H71.944V78.408H99.39v5.937h13.7V65.139zM123.472 114.294h-.164v15.012a90.21 90.21 0 0 1-29.565-7.693 86.31 86.31 0 0 1-6.487-3.273 82.724 82.724 0 0 1-12.527-8.576c-.545-.452-1.086-.915-1.633-1.365-.38-.31-.763-.614-1.152-.905V89.76h40.879c-.028-.105-.056-.211-.086-.316.032.105.061.21.09.316h10.48v24.524c.057.002.11.007.165.01zM149.722 39.861h-6.805v-1.955h3.05v-5.823c.265.09.528.18.79.275v5.548h2.965v1.955zM167.222 65.13h-33.62l.011.009-.015-.008h-6.237V41.854h1.767v17.205h8.076v-10.19h6.672v-8.036h6.848v8.043h6.672v10.19h9.826v6.065zM128.333 66.111v22.787h39.72V66.11h-39.72zm50.501 49.609l.055-18.036h-10.837v-8.071h-39.719v39.613a91.61 91.61 0 0 0 9.77-.115h.057a81.46 81.46 0 0 0 4.638-.421h.035a86.131 86.131 0 0 0 23.834-6.294l12.167-6.676zM184.364 90.417h8.136c-.072 4.385-.896 8.692-2.7 12.67-1.5 3.305-3.586 6.194-6.05 8.719V98.068h.614v-7.651zM192.5 89.444h-8.75V70h4.735c2.45 6.13 4.007 12.858 4.015 19.444z" opacity=".1"/>
        <path fill="#F8765E" fill-rule="nonzero" d="M117.639 49.583h5.833v6.806h-5.833zM117.639 63.194h5.833v1.944h-5.833zM117.639 65.139h5.833v5.833h-5.833zM117.639 78.75h5.833v6.806h-5.833zM117.639 94.306h5.833v6.806h-5.833zM123.304 114.106c.057 0 .113 0 .168.01h-.168v1.578h-5.665v-6.805h5.665v5.217zM123.472 123.472v5.834a96.423 96.423 0 0 1-5.833-.673v-5.16h5.833zM70.972 88.472h24.306v1H70.972z" opacity=".1"/>
        <path fill="#F8765E" fill-rule="nonzero" d="M70.972 89.444h24.306v1.944H70.972zM70.972 98.194h24.306v3.889H70.972zM96.25 107.917v3.889H77.07a87.673 87.673 0 0 1-2.468-2.27c-.562-.536-1.118-1.087-1.685-1.62H96.25zM95.278 117.645v3.883H93.47a75.382 75.382 0 0 1-5.971-3.89l7.778.007zM137.083 69.028h4.861v4.861h-4.861zM34.028 46.667h4.861v4.861h-4.861zM34.028 57.361h4.861v4.861h-4.861zM34.028 69.028h4.861v4.861h-4.861zM34.028 78.75h4.861v4.861h-4.861zM34.028 89.444h4.861v4.861h-4.861zM34.028 102.083h4.861v4.861h-4.861zM155.556 69.028h4.861v4.861h-4.861zM137.083 79.722h4.861v4.861h-4.861zM155.556 79.722h4.861v4.861h-4.861zM137.083 91.389h4.861v4.861h-4.861zM155.556 91.389h4.861v4.861h-4.861zM137.083 103.056h4.861v4.861h-4.861zM155.556 103.056h4.861v4.861h-4.861zM137.083 115.694h4.861v4.861h-4.861zM155.556 115.694h4.861v4.861h-4.861zM137.083 130.278v-3.89h4.861v3.336zM11.667 59.306v3.888h16.527v-3.888H11.667zm1.647 3.645h-1.348v-3.406h1.358l-.01 3.406zm1.645 0h-1.358v-3.406h1.358v3.406zm1.642 0h-1.358v-3.406H16.6v3.406zm1.646 0H16.89v-3.406h1.359l-.002 3.406zm1.644 0h-1.359v-3.406h1.359v3.406zm1.645 0h-1.358v-3.406h1.358v3.406zm1.646 0h-1.359v-3.406h1.359v3.406zm1.643 0h-1.358v-3.406h1.358v3.406zm1.644 0h-1.358v-3.406h1.358v3.406zm1.644 0h-1.359v-3.406h1.359v3.406zM11.667 66.111V70h16.527v-3.889H11.667zm1.647 3.643h-1.348v-3.397h1.358l-.01 3.397zm1.645 0h-1.358v-3.397h1.358v3.397zm1.642 0h-1.358v-3.397H16.6v3.397zm1.646 0H16.89v-3.397h1.359l-.002 3.397zm1.644 0h-1.359v-3.397h1.359v3.397zm1.645 0h-1.358v-3.397h1.358v3.397zm1.646 0h-1.359v-3.397h1.359v3.397zm1.643 0h-1.358v-3.397h1.358v3.397zm1.644 0h-1.358v-3.397h1.358v3.397zm1.644 0h-1.359v-3.397h1.359v3.397zM11.667 75.833v3.89h16.527v-3.89H11.667zm1.647 3.636h-1.348v-3.392h1.358l-.01 3.392zm1.645 0h-1.358v-3.392h1.358v3.392zm1.642 0h-1.358v-3.392H16.6v3.392zm1.646 0H16.89v-3.392h1.359l-.002 3.392zm1.644 0h-1.359v-3.392h1.359v3.392zm1.645 0h-1.358v-3.392h1.358v3.392zm1.646 0h-1.359v-3.392h1.359v3.392zm1.643 0h-1.358v-3.392h1.358v3.392zm1.644 0h-1.358v-3.392h1.358v3.392zm1.644 0h-1.359v-3.392h1.359v3.392zM11.667 82.639v3.889h16.527v-3.89H11.667zm1.647 3.647h-1.348v-3.405h1.358l-.01 3.405zm1.645 0h-1.358v-3.405h1.358v3.405zm1.642 0h-1.358v-3.405H16.6v3.405zm1.646 0H16.89v-3.405h1.359l-.002 3.405zm1.644 0h-1.359v-3.405h1.359v3.405zm1.645 0h-1.358v-3.405h1.358v3.405zm1.646 0h-1.359v-3.405h1.359v3.405zm1.643 0h-1.358v-3.405h1.358v3.405zm1.644 0h-1.358v-3.405h1.358v3.405zm1.644 0h-1.359v-3.405h1.359v3.405zM11.667 89.444c.066.367.141.733.22 1.095v-.85h1.364v3.405h-.73c.022.079.044.165.067.24h15.606v-3.89H11.667zm3.24 3.65h-1.364v-3.405h1.364v3.405zm1.65 0h-1.365v-3.405h1.364v3.405zm1.652 0H16.84v-3.405h1.364l.004 3.405zm1.65 0h-1.364v-3.405h1.365v3.405zm1.653 0h-1.364v-3.405h1.364v3.405zm1.653 0h-1.364v-3.405h1.364v3.405zm1.65 0h-1.363v-3.405h1.364v3.405zm1.652 0h-1.365v-3.405h1.365v3.405zm1.65 0h-1.364v-3.405h1.365v3.405zM14.583 98.194c.043.077.084.163.128.24h.9v1.637c.096.163.191.325.29.479v-2.126h1.36v3.42h-.55c.054.079.106.163.17.24h10.341v-3.89H14.583zm4.32 3.65h-1.36v-3.405h1.36v3.405zm1.648 0h-1.36v-3.405h1.36v3.405zm1.647 0h-1.36v-3.405h1.36v3.405zm1.646 0h-1.36v-3.405h1.36v3.405zm1.646 0h-1.36v-3.405h1.36v3.405zm1.646 0h-1.36v-3.405h1.36v3.405zM24.306 105.972c.168.103.34.198.515.3v-.098h1.485v.888l.315.156v-1.044h1.484v1.707a.447.447 0 0 0 .09.036v-1.945h-3.89zM123.306 114.722h.166-.166zm-10.694-25.268c.032.108.058.216.088.322a6.198 6.198 0 0 0-.088-.322zM33.056 39.861v.719h7.432v-.719h-7.432zm90.25 74.861h.166-.166zm-10.694-25.268c.032.108.058.216.088.322a6.198 6.198 0 0 0-.088-.322zm10.694 25.263h.166-.166zm-10.694-25.263c.032.108.058.216.088.322a6.198 6.198 0 0 0-.088-.322z" opacity=".1"/>
        <path fill="url(#a)" fill-rule="nonzero" d="M86.078 72.494s-.657-.091-.657-1.043c0-.953-.47-2.731-.47-2.731 0-.008-.406-3.097-.967-3.589-.562-.49-1.283-3.374-1.283-3.374s-.124-1.564-.375-1.901c-.252-.337-.592-1.162-1.093-2.338-.501-1.176-2.592-1.99-2.592-1.99s-3.78-2.184-4.852-2.896a1.642 1.642 0 0 1-.271-.204c-.187-.244-1-.249-1-.249a16.246 16.246 0 0 1-.193-1.703c0-.06 0-.12-.008-.18a5.745 5.745 0 0 0 2.534-3.122c.02-.063.036-.13.055-.192a.54.54 0 0 0 .324-.292c.097-.214.099-.465.219-.664.14-.235.406-.362.616-.54.53-.447.667-1.202.642-1.889-.017-.555-.107-1.116-.072-1.669l.01-.139c.01-.083.022-.166.037-.246.081-.411.26-.8.36-1.207.1-.408.11-.868-.124-1.22-.341-.516-1.053-.619-1.678-.672-.708-.06-1.34.019-1.794-.567a6.375 6.375 0 0 0-.713-.858c-.093-.086-1-.637-1-.673a4.066 4.066 0 0 0-2.823-.216c-.47.136-.913.358-1.39.47-1.028.242-2.21-.02-3.083.565-.487.332-.778.86-1.052 1.374-.222.424-.447.847-.676 1.27-.368.694-.743 1.401-.898 2.17a3.434 3.434 0 0 0-.06.508v.271c0 .058 0 .114.01.166.01.051.008.068.013.103.005.034.014.112.024.165.01.054.03.146.05.22.008.031.02.06.03.09.016.057.036.112.058.167.012.028.023.058.037.086.025.058.055.114.085.166.013.023.023.045.036.066.047.077.098.152.153.222.357.443.882.725 1.27 1.14v.186a5.673 5.673 0 0 0 2.596 4.637c0 .063.008.128.011.19.033.493.027.987-.018 1.479a.701.701 0 0 0-.553-.246.801.801 0 0 0-.213.019l-.015-.012v.015c-.367.09-.818.47-1.25 1.55 0 0-1.313 1.473-2.312 1.411-1-.061-3.53 1.533-3.53 1.533s-2.47 1.596-3 3.222a22.649 22.649 0 0 1-1.062 2.701l-3.052 6.263-.563 4.969s.311 2.21.25 2.546c-.062.337 1.28 3.375 1.28 3.375s4.437 7.762 6.25 8.16l.13-.09c.077.04.16.07.245.09l.373-.262c.022.293.013.586-.029.876-.25.767.094 5.769.53 6.75.437.98.282 13.836.282 13.836l-.062 1.134s0 .037.015.1l-.015.269.045.023c.047.36.032.725-.045 1.08-.156.498-.22 1.904-.22 1.904s-1.248 7.944-.656 9.54a54.598 54.598 0 0 1 1.094 3.344s.625 1.991.03 2.331c-.594.34-2.285.911-1.937 1.74.316.767 1.518 2.821 1.696 3.121l-.015.158-.245 2.643c.04.349.135.69.281 1.008.269.576.79 1.173 1.781 1.109.167-.012.36-.032.547-.057 1.814-.242 4.048-1.048 4.048-1.048a1.65 1.65 0 0 1-.316-.26.909.909 0 0 1-.279-.664c.027-.481-.878-2.774-1.102-3.338a5.027 5.027 0 0 1-.054-.128s2.063-2.147 1.72-4.05c0 0-2.283-1.327-1.532-2.055.752-.729 2.095-2.82 2.095-2.82s.061-7.823 0-8.99a9.632 9.632 0 0 1 .115-2.428c.025-.121.055-.239.086-.355 1.04.154 2.088.234 3.139.237.383 0 .773 0 1.166-.023 0 .11.005.23.015.358.087 1.938.248 5.336.38 6.598.187 1.81 1.218 6.688 1.218 6.688s-1.968 1.257.343 4.356c0 0 0 1.124-.153 1.286a14.016 14.016 0 0 0-.395 1.62c-.097.583-.137 1.174.02 1.48.375.734 2.624.674 2.624.674l.055-.01a3.233 3.233 0 0 1 2.38.716c.855.683 4.099.383 5.855.165.688-.086 1.148-.165 1.148-.165a.661.661 0 0 0 .023-.24c-.018-.429-.357-1.371-2.649-2.212 0 0-2.156-1.444-2.126-2.701h-.295c.182-.01.299 0 .299 0s-.845-3.07-.5-3.318c.345-.25-.688-3.65-.688-3.65s-.592-5.707-.623-6.107a3.47 3.47 0 0 1 .155-1.012l-.155-3.13s-.03-1.04 0-1.378a6.857 6.857 0 0 0-.072-.877c-.015-.116-.03-.238-.047-.357a15.617 15.617 0 0 0 1.333-.393L79.3 99.57c.686-1.327.813-4.239.81-6.304 0-1.327-.06-2.31-.06-2.31l.937-1.524s.217-1.825-.126-2.225c-.152-.18-.083-.368.041-.522.065-.052.134-.098.205-.14 0 0-.01-.015-.021-.036.065-.055.135-.104.208-.148 0 0-.333-.514-.035-.732.28.19.53.332.72.448-.014.121-.027.191-.027.191l.08-.166.295.166s1.47-2.915 1.438-3.344c-.032-.43 1-2.24 1-2.24s.124-.95.687-1.349c.563-.398.437-3.283.437-3.283s.156-1.503.531-2.117c.375-.614-.341-1.442-.341-1.442zm-28.115-1.279l.028.695-.287-.46.259-.235z"/>
        <path fill="#FFF" fill-rule="nonzero" d="M81.667 85.738l-.451 1.762s-3.613-1.691-4.265-3.84c-.651-2.15 1.09-2.966 1.09-2.966l3.367 1.309.259 3.735z"/>
        <path fill="#000" fill-rule="nonzero" d="M81.667 85.738l-.451 1.762s-3.613-1.691-4.265-3.84c-.651-2.15 1.09-2.966 1.09-2.966l3.367 1.309.259 3.735z" opacity=".1"/>
        <path fill="#FFF" fill-rule="nonzero" d="M65.139 137.977s-2.782.93-4.695 1.046c-1.015.062-1.549-.504-1.824-1.049a2.952 2.952 0 0 1-.287-.956l.249-2.504.132-1.333 4.064-.959.575 1.599.054.122c.231.534 1.158 2.706 1.13 3.16-.002.234.1.459.285.623.094.096.2.18.317.251zM83.609 136.39a.75.75 0 0 1-.023.25s-5.557.998-6.694 0a2.867 2.867 0 0 0-2.339-.737s-2.15.063-2.509-.7c-.15-.319-.11-.94-.018-1.55.095-.574.22-1.14.377-1.697l.086-.074.512-.442 5.99-.19h.045c-.03 1.317 2.033 2.829 2.033 2.829 2.19.873 2.514 1.86 2.54 2.311z"/>
        <path fill="#000" fill-rule="nonzero" d="M83.61 136.298a.977.977 0 0 1-.025.283s-5.556 1.13-6.693 0c-.648-.668-1.497-.971-2.338-.836 0 0-2.152.071-2.509-.792-.15-.364-.112-1.065-.02-1.759.829.101 2.136.353 2.65.953.776.913 2.092 1.824 2.899 1.895.632.05 4.411.196 6.035.256zM65.139 138.238s-2.905.698-4.903.786c-1.06.047-1.618-.378-1.903-.79.74.163 1.765.334 2.305.178.639-.185 2.905-.305 4.176-.356.097.069.206.13.325.182z" opacity=".1"/>
        <path fill="#CF6F80" fill-rule="nonzero" d="M69.501 60.074c-2.164-.897-4.949-3.86-4.253-5.246.154-.349.246-.726.27-1.112.045-.523.051-1.049.02-1.573a22.914 22.914 0 0 0-.29-2.56s6.757.163 6.364 1.224c-.115.311-.133.852-.102 1.457.031.605.113 1.288.198 1.867a35 35 0 0 0 .236 1.399s-.413.617-.655.65c-.243.033 1.318 5.172-1.788 3.894z"/>
        <path fill="#000" fill-rule="nonzero" d="M64.167 133.643l-.055.045c-2.158-1.945-4.768.479-4.768.479l-.038-.051.133-1.102 4.094-.792.58 1.32.054.101zM78.75 132.368s-1.5-.025-2.3.544c-.8.569-4.667.123-4.5 0a.388.388 0 0 0 .086-.204l.525-.34 6.147-.146c.024.09.042.146.042.146z" opacity=".1"/>
        <path fill="#9BDBE7" fill-rule="nonzero" d="M65.124 111.233a5.218 5.218 0 0 0-.222.86 11.334 11.334 0 0 0-.1 2.445c.054 1.176 0 9.051 0 9.051s-1.153 2.1-1.796 2.841c-.643.74 1.312 2.07 1.312 2.07.291 1.914-1.475 4.077-1.475 4.077-1.796-2.502-3.968.617-3.968.617s-1.18-2.35-1.475-3.19c-.294-.839 1.153-1.42 1.662-1.76.509-.342-.025-2.351-.025-2.351s-.43-1.761-.94-3.368.563-9.605.563-9.605.055-1.42.188-1.916a3.68 3.68 0 0 0 .039-1.088 8.557 8.557 0 0 0-.026-.294l-.013-.1.02-.04.729-1.565s5.877 2.33 5.527 3.316zM77.778 131.236s-1.356-.03-2.079.648c-.723.68-4.217.15-4.066 0 .15-.149.138-1.252.138-1.252-2.05-3.012-.301-4.234-.301-4.234s-.916-4.74-1.081-6.5c-.116-1.228-.26-4.53-.336-6.415-.033-.81-.053-1.368-.053-1.368l1.675-.363.215-.047 4.04-.872s.111.81.186 1.474c.038.283.06.568.064.854-.027.324 0 1.339 0 1.339l.137 3.042a3.7 3.7 0 0 0-.137.984c.027.387.553 5.934.553 5.934s.914 3.31.602 3.547c-.312.239.443 3.23.443 3.23z"/>
        <path fill="#000" fill-rule="nonzero" d="M70.955 48.984c-.123.342-.142.936-.109 1.6-1.97 1.304-4.445 1.253-6.37-.13a25.917 25.917 0 0 0-.31-2.815s7.208.175 6.789 1.345z" opacity=".1"/>
        <path fill="#CF6F80" fill-rule="nonzero" d="M74.859 45.745a5.682 5.682 0 0 1-.287 1.793c-.882 2.678-3.58 4.337-6.392 3.928-2.81-.409-4.916-2.766-4.985-5.583v-.138a5.775 5.775 0 0 1 2.887-5.092 5.876 5.876 0 0 1 5.891 0 5.775 5.775 0 0 1 2.887 5.092h-.001z"/>
        <path fill="#000" fill-rule="nonzero" d="M69.501 59.094c-2.164-.93-4.949-4.004-4.253-5.44.154-.363.246-.754.27-1.154l2.963 2.693 1.834 1.663 1.393-3.924c.118.823.236 1.45.236 1.45s-.413.64-.655.675c-.243.034 1.318 5.362-1.788 4.037z" opacity=".1"/>
        <path fill="#9BDBE7" fill-rule="nonzero" d="M76.806 69.641l-2.567 41.951-3.348.214-8.669-24.325 1.422-28.88.3-6.101 3.854 3.08 1.904 1.517 1.488-3.685 2.768 2.346z"/>
        <path fill="#000" fill-rule="nonzero" d="M66.095 111.772a6.485 6.485 0 0 0-.24 1.006c-2.258-.434-4.452-1.285-6.507-2.527l-.042-.027.014-.316.008-.164.788-1.827s6.357 2.705 5.979 3.855zM71.944 113.52c-.623.114-1.253.19-1.884.23-.038-.91-.06-1.537-.06-1.537l1.895-.407.05 1.715zM76.806 111.319c-1.232.296-3.134.63-4.837.421l-.025-1.016 4.647-.863s.128.794.215 1.458z" opacity=".1"/>
        <path fill="#000" fill-rule="nonzero" d="M71.944 112.528c-6.456 1.181-12.368-2.207-12.368-2.207l.056-1.148s.147-13.013-.26-14.01c-.406-.998-.722-6.057-.492-6.833.23-.777-.84-12.42-.84-12.42l-.173-4.727-6.34-2.754 2.835-6.333a23.88 23.88 0 0 0 .986-2.735c.493-1.644 2.78-3.26 2.78-3.26s2.347-1.613 3.274-1.552c.928.06 2.143-1.428 2.143-1.428.898-2.453 1.71-1.342 1.71-1.342 0 .116 0 0-.044.363-.315 2.692 5.093 11.2 5.17 11.35l.515 13.447.52 17.017.528 18.572z" opacity=".1"/>
        <path fill="#FFF" fill-rule="nonzero" d="M71.944 112.528c-6.454 1.181-12.367-2.206-12.367-2.206l.058-1.148s.147-13.01-.261-14.008c-.408-.998-.723-6.056-.491-6.832.231-.777-.84-12.419-.84-12.419l-.174-4.726-6.341-2.762 2.833-6.333c.382-.888.712-1.801.986-2.734.491-1.644 2.78-3.259 2.78-3.259s2.346-1.614 3.271-1.553c.926.061 2.143-1.428 2.143-1.428.899-2.452 1.89-1.341 1.89-1.341 0 .116-.095.168-.045.362.693 2.611 4.918 11.199 4.995 11.349l.521 13.445.521 17.014.521 18.579z"/>
        <path fill="#000" fill-rule="nonzero" d="M70 64.167c-.795-.303-5.004-4.696-5.004-4.696v-1c-.153-.33-1.063-.129-1.802.102l.318-6.073.36.273c.79 2.547 6.036 11.247 6.128 11.394z" opacity=".1"/>
        <path fill="#FFF" fill-rule="nonzero" d="M70 64.167c-.796-.303-5.004-4.696-5.004-4.696v-1c-.153-.33-1.063-.129-1.802.102l.32-6.073.36.273c.79 2.547 6.038 11.249 6.126 11.394z"/>
        <path fill="#000" fill-rule="nonzero" d="M59.634 86.984c.08 0 4.16-.456 4.16-.456s2.471 5.165 2.31 6.422c-.163 1.257-.456 2.37-1.45 2.173-.994-.197-5.348.155-5.348.155l.328-8.294z" opacity=".1"/>
        <path fill="#FFF" fill-rule="nonzero" d="M58.662 86.984c.08 0 4.16-.456 4.16-.456s2.47 5.167 2.31 6.422c-.161 1.256-.457 2.37-1.45 2.173-.992-.197-5.349.155-5.349.155l.329-8.294z"/>
        <path fill="#CF6F80" fill-rule="nonzero" d="M61.812 83.611s4.206 2.753 4.296 3.594c.09.84-2.14-.367-2.622-.513a5.016 5.016 0 0 0-.966-.184l-3.214.106 2.506-3.003z"/>
        <circle cx="69.514" cy="63.681" r="1" fill="#000" fill-rule="nonzero" opacity=".1"/>
        <circle cx="69.514" cy="63.681" r="1" fill="#3F3D56" fill-rule="nonzero"/>
        <circle cx="69.514" cy="84.097" r="1" fill="#000" fill-rule="nonzero" opacity=".1"/>
        <circle cx="69.514" cy="83.125" r="1" fill="#3F3D56" fill-rule="nonzero"/>
        <circle cx="69.514" cy="74.375" r="1" fill="#000" fill-rule="nonzero" opacity=".1"/>
        <circle cx="69.514" cy="74.375" r="1" fill="#3F3D56" fill-rule="nonzero"/>
        <path fill="#FFF" fill-rule="nonzero" d="M80.097 85.311s.297.462 0 .678c-.298.216.029.738.029.738s-.743.45-.416.855c.327.404.12 2.233.12 2.233l-.894 1.529s.054.985.057 2.317c0 2.077-.118 4.998-.772 6.33l.09 10.925s-3.127 1.181-5.745.821l-.389-17.531s.567-9.942.776-11.849c.122-.99.171-1.988.148-2.986 0 0-.089-2.984-.388-4.37 0 0-.324-6-.356-7.66-.014-.796.026-3.114.071-5.319.05-2.41.107-4.684.107-4.684l-.59-4.831s.59-.062.768.184c.08.077.166.146.259.206 1.02.712 4.621 2.904 4.621 2.904s1.994.82 2.471 1.994c.478 1.174.81 2.007 1.04 2.342.232.334.358 1.907.358 1.907s.686 2.894 1.222 3.384c.536.49.927 3.608.927 3.608l-4.733 3.848s-.416 6.4-.505 6.648c-.089.247 1.724 5.78 1.724 5.78z"/>
        <path fill="#FFF" fill-rule="nonzero" d="M79.869 85.332s.315.462 0 .677c-.316.216.029.737.029.737s-.787.455-.442.86c.345.404.128 2.23.128 2.23l-.953 1.528s.057.984.063 2.314c0 2.076-.126 4.994-.823 6.324l.094 10.915s-3.34 1.18-6.128.82l-.413-17.514s.604-9.932.827-11.837c.13-.989.183-1.986.157-2.983 0 0-.095-2.981-.413-4.365 0 0-.345-5.995-.38-7.654-.016-.794.028-3.11.075-5.313.053-2.408.114-4.68.114-4.68l-.832-4.891s.832 0 1.023.249c.085.078.177.147.276.206 1.088.711 4.93 2.9 4.93 2.9s2.124.82 2.633 1.993c.51 1.173.863 2.005 1.111 2.34.249.334.38 1.905.38 1.905s.731 2.89 1.303 3.38c.57.49.983 3.599.983 3.599l-5.047 3.843s-.443 6.394-.54 6.642c-.097.247 1.845 5.775 1.845 5.775z"/>
        <path fill="#000" fill-rule="nonzero" d="M75.043 58.907l.531 1.176-2.793 2.14c.062-2.2.132-4.279.132-4.279l-.969-4.472s.97 0 1.192.228c.098.07.206.133.322.186l2.375 5.21-.79-.19z" opacity=".1"/>
        <path fill="#FFF" fill-rule="nonzero" d="M74.07 58.907l.532 1.176-2.792 2.14c.062-2.202.132-4.279.132-4.279l-.97-4.472s.97 0 1.191.228c.099.07.207.134.322.188l2.376 5.208-.791-.19z"/>
        <path fill="#000" fill-rule="nonzero" d="M74.859 44.89a4.219 4.219 0 0 1-.287 1.534.278.278 0 0 1-.184-.04c-.044-1.3-.8-2.52-1.728-3.56a4.11 4.11 0 0 0-.938-.823 2.078 2.078 0 0 0-1.272-.305c-.511.059-.963.354-1.48.391-.681.048-1.291-.352-1.968-.373-.557.005-1.084.212-1.447.57-.356.356-.62.772-.776 1.22a6.167 6.167 0 0 0-.433 2.103c-.009.405-.055.912-.498 1.06.068-.602-.165-1.2-.642-1.65l-.01-.008v-.118c-.037-1.787 1.067-3.451 2.886-4.353 1.82-.902 4.072-.902 5.891 0 1.82.902 2.923 2.566 2.887 4.353h-.001z" opacity=".1"/>
        <path fill="#512E4E" fill-rule="nonzero" d="M71.706 37.33a3.575 3.575 0 0 0-2.679-.223c-.447.14-.867.37-1.32.485-.968.25-2.096-.02-2.926.584-.461.345-.739.889-.996 1.418l-.645 1.312c-.352.719-.706 1.449-.853 2.24-.147.79-.058 1.676.411 2.311.342.464.846.755 1.217 1.19.45.536.669 1.248.606 1.964.421-.172.461-.778.471-1.26a9.032 9.032 0 0 1 .41-2.509 4.09 4.09 0 0 1 .733-1.454 1.787 1.787 0 0 1 1.369-.678c.644.024 1.223.5 1.862.442.483-.043.912-.396 1.399-.465a1.65 1.65 0 0 1 1.202.364c.341.276.64.607.885.982.88 1.238 1.595 2.69 1.637 4.244.182.143.445-.043.535-.264.09-.22.093-.478.208-.689.132-.242.385-.372.583-.554.503-.464.63-1.244.61-1.952-.02-.708-.149-1.426-.023-2.122.076-.427.247-.827.34-1.249.094-.422.105-.895-.116-1.259-.322-.534-1-.639-1.592-.689-.673-.062-1.274.017-1.703-.587a6.53 6.53 0 0 0-.677-.886c-.085-.09-.948-.658-.948-.696z"/>
        <path fill="#000" fill-rule="nonzero" d="M51.871 72.316l-1.737-3.288-.55 5.073s.305 2.254.244 2.599c-.062.346 1.253 3.443 1.253 3.443s4.345 7.92 6.12 8.33l5.993-4.385-1.59-2.066s-.55-.22-.687 0c0 0-2.952-5.198-3.258-5.574-.306-.376-.246-1.127-.246-1.127s-.459-.5-.306-.97c.153-.47-.886-2.098-.886-2.098l.948-.907-5.298.97z" opacity=".1"/>
        <path fill="#FFF" fill-rule="nonzero" d="M50.592 69.028l-.458.367-.55 4.978s.305 2.21.244 2.55c-.062.338 1.255 3.377 1.255 3.377s4.342 7.771 6.116 8.172l5.995-4.301-1.59-2.027s-.55-.216-.689 0c0 0-2.95-5.1-3.257-5.469-.306-.369-.244-1.105-.244-1.105s-.459-.491-.306-.952c.153-.46-.888-2.059-.888-2.059l.948-.89-6.576-2.641z"/>
        <path fill="#000" fill-rule="nonzero" d="M80.161 88.276c.415.37.154 2.037.154 2.037L79.17 91.71s.068.901.072 2.115l-1.925.443a1.483 1.483 0 0 1-1.032-.133c-.294-.164-.463-.424-.451-.696l.332-7.882 4.491 1.264c-.382.196.037.675.037.675s-.952.41-.533.78z" opacity=".1"/>
        <path fill="#FFF" fill-rule="nonzero" d="M80.162 88.272c.414.371.153 2.038.153 2.038l-1.145 1.394s.069.9.075 2.114l-1.96.45c-.345.08-.721.03-1.01-.13-.288-.162-.452-.415-.441-.681l.334-7.901 4.491 1.263c-.383.196.035.673.035.673s-.947.41-.532.78z"/>
        <path fill="#CF6F80" fill-rule="nonzero" d="M80.694 84.076s-.33 1.677-1.156 1.775c-.826.098-1.197 2.712-2.02 2.619-.825-.093-.28-2.43-.25-2.883.03-.454-.898-2.332-.204-2.758.694-.427 2.89 0 2.89 0l.74 1.247z"/>
        <path fill="#000" fill-rule="nonzero" d="M82.14 72.328L83.185 70s.416 1.774.416 2.722.582 1.041.582 1.041.638.832.301 1.437c-.336.606-.472 2.112-.472 2.112s.11 2.876-.389 3.273c-.499.398-.603 1.347-.603 1.347s-.916 1.805-.888 2.234c.029.429-1.275 3.334-1.275 3.334s.637-3.61-3.08-5.17c0 0-.028-1.226.25-1.562.277-.336.71-.489.438-2.187-.271-1.698-.078-3.727-.078-4.134 0-.408.832-2.949.832-2.949l2.92.83z" opacity=".1"/>
        <path fill="#FFF" fill-rule="nonzero" d="M82.272 69.028l.913.344s.418 1.838.418 2.82c0 .982.581 1.079.581 1.079s.637.861.302 1.488c-.336.627-.47 2.188-.47 2.188s.11 2.978-.39 3.39c-.498.412-.61 1.395-.61 1.395s-.914 1.87-.885 2.314c.028.444-1.276 3.454-1.276 3.454s.639-3.74-3.076-5.356c0 0-.028-1.27.25-1.617.277-.348.71-.507.438-2.266-.271-1.759-.078-3.86-.078-4.282 0-.422.831-3.055.831-3.055l3.052-1.896z"/>
        <path fill="#000" fill-rule="nonzero" d="M60.278 129.105s2.192-1.434 3.632-.392c1.439 1.042-3.632.392-3.632.392zM72.917 126.395s1.941-.12 3.572.718c1.63.838-3.572-.718-3.572-.718z" opacity=".1"/>
        <g fill="#000" fill-rule="nonzero" opacity=".1">
            <path d="M75.76 44.72c-.196.153-.45.263-.581.467-.112.175-.115.39-.205.579-.09.188-.351.342-.532.223-.042-1.303-.753-2.527-1.627-3.57a3.91 3.91 0 0 0-.88-.825 1.858 1.858 0 0 0-1.197-.305c-.48.06-.904.355-1.39.39-.64.05-1.216-.351-1.852-.371a1.899 1.899 0 0 0-1.359.572 3.267 3.267 0 0 0-.729 1.22 6.54 6.54 0 0 0-.407 2.109c-.01.404-.051.907-.465 1.058.01.107.01.215 0 .321.417-.144.459-.654.468-1.06a6.533 6.533 0 0 1 .407-2.108c.147-.449.395-.865.73-1.222a1.904 1.904 0 0 1 1.358-.57c.641.02 1.218.42 1.853.372.48-.036.907-.333 1.39-.391.427-.037.854.072 1.197.305.338.233.635.511.88.826.873 1.04 1.584 2.261 1.626 3.568.181.12.442-.037.532-.222.09-.185.093-.403.205-.58.132-.203.385-.312.582-.465.5-.39.625-1.046.606-1.641v-.055c-.03.515-.183 1.041-.61 1.374zM63.93 44.616c-.368-.366-.871-.61-1.21-.999a1.995 1.995 0 0 1-.466-1.186c-.05.536.115 1.07.467 1.505.338.39.841.634 1.21 1 .353.359.566.813.604 1.292a2.044 2.044 0 0 0-.604-1.612zM76.682 40.245c-.094.355-.263.692-.34 1.05a3.028 3.028 0 0 0-.05.724c.006-.138.023-.276.05-.412.077-.359.246-.695.34-1.05.055-.195.073-.398.053-.599-.01.097-.028.193-.053.287z"/>
        </g>
        <ellipse cx="30.139" cy="134.167" fill="#F8765E" fill-rule="nonzero" opacity=".1" rx="16.528" ry="2.917"/>
        <path fill="#535461" fill-rule="nonzero" d="M30.139 83.611h1v23.333h-1z"/>
        <path fill="#3F3D56" fill-rule="nonzero" d="M36.94 107.518l-.062 1.026-.09 1.452-.036.604-.088 1.452-.038.604-.09 1.452-1.01 16.47a2.778 2.778 0 0 1-2.762 2.616h-5.256a2.776 2.776 0 0 1-2.76-2.617l-1.006-16.48-.09-1.453-.036-.603-.09-1.452-.037-.604-.09-1.452-.063-1.026c-.023-.4.119-.79.391-1.08.273-.291.652-.455 1.048-.455h10.752c.395.004.77.172 1.038.464.268.293.404.685.376 1.082z"/>
        <path fill="#9D9CB5" fill-rule="nonzero" d="M36.944 107.917l-.09.972h-13.43l-.09-.972zM36.944 109.861l-.09.972H23.425l-.092-.972zM36.944 112.778l-.092.972H23.427l-.094-.972z"/>
        <path fill="#9BDBE7" fill-rule="nonzero" d="M22.742 93.296c5.904 4.565 8.37 11.704 8.37 11.704s-7.117-.26-13.023-4.826c-5.907-4.564-8.367-11.702-8.367-11.702s7.113.26 13.02 4.824z"/>
        <path stroke="#535461" stroke-width="2" d="M9.722 88.472s7.386 4.38 9.755 8.007C21.846 100.105 31.111 105 31.111 105"/>
        <path fill="#9BDBE7" fill-rule="nonzero" d="M25.573 83.938c3.22 2.146 4.566 5.506 4.566 5.506s-3.88-.122-7.102-2.269c-3.221-2.147-4.565-5.508-4.565-5.508s3.88.122 7.1 2.27z"/>
        <path stroke="#535461" stroke-width="2" d="M18.472 81.667s4.028 2.061 5.32 3.768c1.291 1.706 6.347 4.01 6.347 4.01"/>
        <path fill="#9BDBE7" fill-rule="nonzero" d="M35.666 90.851c-3.76 4.026-4.555 9.288-4.555 9.288s5.3-1.268 9.057-5.296c3.756-4.027 4.554-9.287 4.554-9.287s-5.297 1.269-9.056 5.295z"/>
        <path stroke="#535461" stroke-width="2" d="M44.722 85.556s-4.896 4.127-6.14 6.971c-1.245 2.844-7.47 7.612-7.47 7.612"/>
        <path fill="url(#b)" fill-rule="nonzero" d="M173.994 88.033s-2.715-13.64-1.676-15.338c0 0 .038-1.578-.025-3.589v-.23c.183.123.374.233.571.332.958.496 2.057.64 3.108.405l-.822-.925c-.197-.221-.403-.46-.446-.753-.042-.292.076-.553.178-.813.781-1.993.822-4.499-.683-6.02-1.27-1.279-1.58-2.93-2.96-4.097-1.008-.855-1.562-2.109-2.085-3.321-.443-1.025-.888-2.058-1.141-3.144-.198-.848-.277-1.727-.548-2.556-.271-.828-.78-1.634-1.574-2.004-.283-.131-.597-.206-.855-.38-.339-.231-.543-.606-.788-.935-1.245-1.66-5.414-.683-7.387-.009a4.145 4.145 0 0 0-1.46.817l.018-.03c.014-.024.032-.05.049-.074a2.612 2.612 0 0 0-.553.623c-.288.46-.408.996-.648 1.494-.29.59-1.9 2.235-1.207 2.898.049.045.104.08.165.106.26.11.546.138.822.083l-.03.072a4.896 4.896 0 0 0-.357 1.841c0 2.729 2.229 4.94 4.98 4.94.517.001 1.032-.079 1.525-.237.011.063.021.127.033.19 0 .025.008.05.011.074l-.087.123a.166.166 0 0 0-.015-.021l-2.582 3.643c-.394.28-2.667 1.942-2.796 3.187-.134 1.363-.27 2.96-.27 2.96l-.017.341a1.01 1.01 0 0 1-.823.225c-.805-.133-.805 2.989-.805 2.989s-.537.498-.905.066-1.342 1.031-1.342 1.031l-6.101.266-.14.008-.329-1.027a.428.428 0 0 0-.612-.246l-.023.013-.042.03-.022.02a.33.33 0 0 0-.033.035l-.02.023-.01.01a.422.422 0 0 0-.059.372l.283.882c-1.177.239-2.381.913-1.4 2.77l-4.976-.929 1.61 1.365 8.312 1.733c-.11.199-.038.488.306.895 1.48 1.755 4.177 2.232 5.262 2.354.287.648.645 1.26 1.068 1.827l-.094 1.749s-2.748 13.328-3.251 14.004c.254-.29.486-.6.695-.925-.797 2.739-1.912 6.487-2.205 7.048-.47.897-.906 4.525-.37 4.758.164.071.635.036 1.306-.015v.3l-.03 11.39s.135 6.987-.235 7.653c-.37.666-.469 2.063-.469 2.063s-1.48 2.755-2.652 3.862a.177.177 0 0 1-.027.024l-.036-.26s-1.41 1.797-4.527 1.696c0 0-1.877 1.232.906 1.299 2.782.066 6.336-.1 6.336-.1s2.482-3.82 4.56-3.321v2.894h.637v-2.94a2.637 2.637 0 0 0 1.133-1.733 2.116 2.116 0 0 0-.743-1.948 1.25 1.25 0 0 1-.406-.91l-.023.02c0-.058-.015-.118-.022-.18-.182-1.494-.41-4.578.397-6.86 1.106-3.128 1.442-7.486.636-10.08-.26-.829-.474-1.672-.64-2.525-.02-.108-.038-.211-.054-.308.55.076 1.096.186 1.633.332 1.867.52 5.95.617 9.437.588.008.097.018.198.03.3.061.703.191 1.4.387 2.078.438 1.329.638 7.186.638 7.186s.564 4.816.257 6.775c-.165 1.09-.329 2.184-.423 3.284v.021s-.924 2.657-1.6 4.1c-.016.037-.034.073-.05.108a2.12 2.12 0 0 0-.529.118s-.906 1.827-1.809 2.13c-.903.301-.603 1.296 1.44.93 2.045-.365 5.132-.663 5.132-.663l.133-1.864.628-.794-.164 1.859.67-.133-.09-2.26 1.028-1.299s1.242-1.116-.603-3.311v.048c-.02-.032-.038-.065-.06-.096v-.01c-.305-.479-.549-1.37-.103-2.953a65.724 65.724 0 0 0 1.274-5.455s1.8-6.953-.363-10.243h.095a5.572 5.572 0 0 1-.495-1.646c1.6-.093 3.171-.385 4.452-1.016-.005-.007-.776-16.507-1.414-19.134zm-20.315-11.509v.034l-.33.016.33-.05zm-1.129.158a.362.362 0 0 0-.148.072c-.141.202-.23.436-.258.682l-.513-.116s-.36-.078-.878-.166l-.245-.25c.674-.056 1.375-.139 2.042-.222z"/>
        <path fill="#1D2366" fill-rule="nonzero" d="M171.401 132.703l-.29 3.408.972-.192-.146-3.697z"/>
        <path fill="#FFB0B1" fill-rule="nonzero" d="M156.37 122.48c-.845 2.351-.606 5.525-.416 7.067.07.57.135.917.135.917s-1.264 2.812-1.37 2.918c-.105.107-3.72 2.261-3.72 2.261l-2.526 1.44s-2.563-1.097-1.334-1.474c.251-.099.477-.25.663-.442 1.23-1.141 2.776-3.979 2.776-3.979s.105-1.44.492-2.125.246-7.883.246-7.883l.03-11.734v-1.53l4.808.035c.03.52.1 1.036.208 1.545.172.88.396 1.748.67 2.603.847 2.676.496 7.158-.661 10.38z"/>
        <path fill="#000" fill-rule="nonzero" d="M154.583 130.13s-1.059 2.541-1.147 2.637c-.088.096-3.117 2.043-3.117 2.043l-2.116 1.301s-2.148-.99-1.118-1.332c.21-.089.4-.225.555-.399l.092.678.705-.031 6.039-5.721c.053.511.107.825.107.825z" opacity=".1"/>
        <path fill="#1D2366" fill-rule="nonzero" d="M154.44 130.278l-6.63 5.968-.77.032-.16-1.125s-1.348 1.732-4.342 1.636c0 0-1.798 1.187.866 1.251 2.665.065 6.067-.096 6.067-.096s2.377-3.696 4.366-3.214v2.791h.611v-2.816c.574-.387.966-.99 1.084-1.672a2.046 2.046 0 0 0-.709-1.876 1.21 1.21 0 0 1-.383-.88z"/>
        <path fill="#FFB0B1" fill-rule="nonzero" d="M171.19 125.179c-.424 1.533-.193 2.397.097 2.86v.01c.371.572.63 1.212.76 1.884l.026.145-2.987 4.415-1.62.646s-2.606-.902-2.13-1.16c.12-.064.306-.4.519-.863.637-1.396 1.515-3.973 1.515-3.973v-.02c.093-1.064.24-2.125.402-3.18.29-1.9-.244-6.564-.244-6.564s-.191-5.671-.605-6.961a10.776 10.776 0 0 1-.37-2.008 21.315 21.315 0 0 1-.106-1.472s1.716-2.422 4.862.193c.251.209.473.452.657.724 2.173 3.134.424 10.04.424 10.04s-.438 2.512-1.2 5.284z"/>
        <path fill="#000" fill-rule="nonzero" d="M172.083 130.314l-2.99 4.21-1.624.615s-2.61-.86-2.133-1.107c.12-.06.306-.38.52-.822 1.105-.009 1.677 1.007 1.677 1.007l1.4-.215s1.846-3.503 2.26-3.717c.415-.214.064-1.6.064-1.6v-.352c.012.013.021.026.034.039v.009c.372.545.63 1.155.762 1.796l.03.137z" opacity=".1"/>
        <path fill="#1D2366" fill-rule="nonzero" d="M167.622 134.132s-.76-1.392-2.214-.878c0 0-.819 1.668-1.637 1.938-.819.27-.545 1.18 1.304.847 1.85-.332 4.638-.606 4.638-.606l.122-1.697 1.88-2.391s1.12-1.015-.547-3.012v.348s.334 1.364-.06 1.575c-.395.21-2.148 3.663-2.148 3.663l-1.338.213z"/>
        <path fill="#000" fill-rule="nonzero" d="M155.315 107.938c.035.32.115.637.24.95-2.3-.173-4.434-.087-5.833-.03v-.941l5.593.02zM173.056 109.743s-3.047.098-6.68.118a10.94 10.94 0 0 1-.126-1.148s2.053-1.889 5.815.151c.301.163.566.353.787.564.059.107.127.212.204.315z" opacity=".1"/>
        <path fill="#1D2366" fill-rule="nonzero" d="M172.083 109.699s-11.795.576-15.39-.442c-3.595-1.018-7.159-.136-7.696-.372-.536-.236-.1-3.935.37-4.851.472-.916 3.057-10.178 3.057-10.178l2.488-13.093 2.62-.729.186-.052 4.566-1.271 3.346-.933s6.654 26.222 6.083 28.156c-.207.74-.24 1.519-.098 2.275.088.516.245 1.017.468 1.49z"/>
        <path fill="#C7DAF5" fill-rule="nonzero" d="M145.22 72.917s-2.529 2.671-.615 4.16c1.914 1.489 3.173.142 3.173.142l-2.559-4.302z"/>
        <path fill="#000" fill-rule="nonzero" d="M145.22 72.917s-2.529 2.671-.615 4.16c1.914 1.489 3.173.142 3.173.142l-2.559-4.302z" opacity=".1"/>
        <path fill="#FFB0B1" fill-rule="nonzero" d="M165.278 55.714s-.32.24-.8.592c-.686.503-1.701 1.24-2.6 1.857-1.247.853-2.276 1.48-1.908.945.368-.535.298-1.466.115-2.337-.013-.058-.025-.116-.039-.173a13.316 13.316 0 0 0-.602-1.893s2.014-2.045 3.128-2.852c.415-.307.706-.432.723-.22.02.287.292.92.631 1.59l.031.063c.226.46.481.93.705 1.338.343.625.616 1.09.616 1.09z"/>
        <path fill="#000" fill-rule="nonzero" d="M164.306 53.482c-.416 1.815-2.014 3.301-4.171 3.88a15.043 15.043 0 0 0-.69-2.3s4.084-4.286 4.147-3.418c.015.329.334 1.058.714 1.838zM159.654 58.934l.407-.6s.27 1.72 1.26.961c.992-.759 1.04 5.713 1.04 5.713l-1.064 16.659-7.686-.482.218-8.05.87-4.057 2.152-5.9 1.28-1.948 1.523-2.296z" opacity=".1"/>
        <path fill="#1D2366" fill-rule="nonzero" d="M162.361 65.014l-.969 15.057-.102 1.596-4.287-.27-.162-.01-3.23-.202.218-8.048.87-4.056 2.153-5.897 1.281-1.949 1.525-2.303.407-.599s.27 1.72 1.26.962l.022-.015c.969-.642 1.014 5.734 1.014 5.734z"/>
        <path fill="#FFF" fill-rule="nonzero" d="M156.13 68.056s-.399.727-1.2.61c-.8-.119-.799 2.619-.799 2.619s-.532.436-.9.058c-.366-.379-1.334.9-1.334.9l-6.064.233s2.698 1.076 2.17 4.33c0 0 9.16-.495 9.46-1.25.3-.756-1.333-7.5-1.333-7.5z"/>
        <path fill="#000" fill-rule="nonzero" d="M156.13 68.056s-.399.727-1.2.61c-.8-.119-.799 2.619-.799 2.619s-.532.436-.9.058c-.366-.379-1.334.9-1.334.9l-6.064.233s2.698 1.076 2.17 4.33c0 0 9.16-.495 9.46-1.25.3-.756-1.333-7.5-1.333-7.5z" opacity=".03"/>
        <path fill="#FFF" fill-rule="nonzero" d="M138.056 74.861l1.58 1.607 13.003 3.254-1.613-1.96zM160.034 59.86c-.192.326-.742 1.998-1.2 3.457-.383 1.217-.703 2.286-.703 2.286s-.746 5.41-1.127 6.388c-.38.978-.174 4.791-.174 4.791l-1.42 9.418s-.644 4.857-1.637 7.758c-.98 2.855-2.073 4.194-2.106 4.236.44-.662 2.836-13.713 2.836-13.713l.79-16.459s.117-1.564.234-2.9c.117-1.338 2.491-3.163 2.491-3.163l2.29-3.626c.23.343.076.94-.274 1.527z"/>
        <path fill="#FFB0B1" fill-rule="nonzero" d="M153.393 80.694s-4.181-.175-6.206-2.528c-2.026-2.353 4.68-.94 4.68-.94l1.744.388-.218 3.08z"/>
        <path fill="#000" fill-rule="nonzero" d="M172.05 106.565a5.022 5.022 0 0 0-.093 2.232c-4.044.297-8.37-.833-8.37-.833-.805.767-2.928 1.897-2.928 1.897l-1.157-14.84c-.74-2.001-1.03-12.485-1.03-12.485s.066-.548.161-1.37c0-.02 0-.042.008-.062.289-2.296.861-6.607 1.141-7.189.387-.8-1.189-2.93-1.189-2.93l.717-6.328.087-.763c1.512-.699 2.67-2.93 2.67-2.93l.89-1.612c.967-.642 1.017 5.649 1.017 5.649l-.967 14.856 3.204-.916s6.386 25.726 5.84 27.624z" opacity=".1"/>
        <path fill="#FFF" fill-rule="nonzero" d="M175 106.857c-4.644 2.229-13.083.164-13.083.164-.85.755-3.085 1.868-3.085 1.868L157.61 94.28c-.778-1.97-1.083-12.29-1.083-12.29s.981-7.699 1.389-8.485c.118-.23.06-.571-.08-.939a11.516 11.516 0 0 1-.744-5.497l.326-2.677.09-.75c1.594-.69 2.815-2.885 2.815-2.885l.849-1.438 1.562-2.65.74-1.253.126.11.96.84 1.018.82c1.33 1.084 3.626 2.991 4.811 4.158 1.043 1.028 1.372 5.024 1.467 8.033.063 1.981.026 3.534.026 3.534-1.051 1.672 1.698 15.1 1.698 15.1.64 2.595 1.419 18.845 1.419 18.845z"/>
        <path fill="#000" fill-rule="nonzero" d="M167.36 60.512s-3.284 5.934-2.903 8.19c.382 2.255 1.466 4.807.943 5.404a1.97 1.97 0 0 1-1.537.729c-.525.033-1.924.961-1.924 1.06 0 .1-1.293.1-2.45.566-1.155.465-2.863.729-2.863.729s-3.323-.1-3.633.199c-.31.299-.627 2.088.035 3.514.663 1.427 1.4 2.491 1.956 2.686.556.194 4.086-.929 6.95-1.194 2.863-.266 5.971-2.42 5.971-2.42s3.423-1.163 4.023-3.118c.6-1.954-.733-12.698-.733-12.698s-1.007-5.007-3.836-3.647z" opacity=".03"/>
        <path fill="#000" fill-rule="nonzero" d="M167.363 60.512s-3.285 5.935-2.9 8.19c.385 2.253 1.466 4.807.941 5.405a1.962 1.962 0 0 1-1.536.73c-.525.032-1.926.96-1.926 1.06 0 .1-1.293.1-2.45.563-1.157.464-2.865.73-2.865.73s-3.325-.1-3.633.199c-.308.299-.63 2.09.035 3.514.665 1.425 1.4 2.491 1.957 2.686.556.194 4.088-.929 6.953-1.193s5.975-2.421 5.975-2.421 3.423-1.163 4.017-3.116c.593-1.953-.734-12.7-.734-12.7s-1.004-5.006-3.834-3.647z" opacity=".03"/>
        <path fill="#FFF" fill-rule="nonzero" d="M167.355 60.51s-3.283 5.936-2.898 8.19c.385 2.254 1.466 4.808.943 5.405a1.96 1.96 0 0 1-1.538.73c-.524.034-1.924.962-1.924 1.06 0 .098-1.29.1-2.448.565-1.158.465-2.864.729-2.864.729s-3.323-.1-3.633.2c-.31.298-.627 2.089.035 3.514.663 1.425 1.4 2.491 1.956 2.686.556.194 4.086-.929 6.95-1.195 2.862-.265 5.97-2.42 5.97-2.42s3.423-1.162 4.023-3.117c.6-1.955-.724-12.7-.724-12.7s-1.021-5-3.848-3.647z"/>
        <path fill="#000" fill-rule="nonzero" d="M166.677 75.977s-1.929-.483-1.257.322c.67.805.667 1.51 1.489 1.478.821-.032-.232-1.8-.232-1.8zM171.387 94.306s-1.057 1.007.966 3.329c2.023 2.321-.966-3.33-.966-3.33zM168.253 101.111c0 .104-.483 3.828 1.324 4.758 1.807.931-1.324-4.758-1.324-4.758z" opacity=".1"/>
        <path fill="#FFB0B1" fill-rule="nonzero" d="M144.875 71.944c-1.245.05-3.934.488-2.54 3.487 1.233 2.655 3.305.88 4.47-.465-.284-1.255-.975-2.337-1.93-3.022zM146.78 75.86l.05-.052-.05.051z"/>
        <path fill="#000" fill-rule="nonzero" d="M167.222 57.146a218.13 218.13 0 0 0-2.489 1.696c-.557.408-1.618 2.803-2.303 4.026-.545.983-2.317 1.236-2.986 1.299l.086-.731c1.52-.672 2.683-2.813 2.683-2.813l3.004-5.206 1.034.93.971.8z" opacity=".1"/>
        <path fill="#DCE7FF" fill-rule="nonzero" d="M167.222 57.146c-1.243.84-2.285 1.549-2.489 1.698-.557.406-1.618 2.801-2.303 4.024-.545.983-2.317 1.236-2.986 1.299l.086-.731c1.52-.672 2.683-2.813 2.683-2.813l3.004-5.206 1.034.926s.389.317.971.803z"/>
        <path fill="#FFB0B1" fill-rule="nonzero" d="M163.333 52.985a4.375 4.375 0 1 1 0 0z"/>
        <path fill="#000" fill-rule="nonzero" d="M173.056 69.028a4.295 4.295 0 0 1-1.623-1.622c-.284-.52-.472-1.122-.955-1.491-.436-.331-1.018-.412-1.56-.56-1.784-.49-3.28-2.005-3.336-3.735-.027-.814.246-1.626.122-2.432a2.6 2.6 0 0 0-.566-1.255 4.459 4.459 0 0 0-.49-.49c-.238-.209-.487-.41-.704-.631a2.47 2.47 0 0 1-.356-.45 2.088 2.088 0 0 1-.195-.418c-.34-.966-.03-2.111-.404-3.088l-.02-.053c-.14-.347-.427-.694-.826-.721-.398-.027-.74.28-1.12.418-.794.287-1.652-.202-2.316-.7-.663-.5-1.41-1.069-2.253-.958-.558.074-.999.427-1.513.61a2.243 2.243 0 0 1-.358.096c.897-2.08 3.255-3.277 5.621-2.851 2.366.425 4.075 2.353 4.074 4.595 0 .328-.036.655-.11.976a37.45 37.45 0 0 0 .641 1.444l.958.808 1.018.789c1.327 1.04 3.622 2.874 4.805 3.996 1.042.99 1.367 4.83 1.466 7.723z" opacity=".1"/>
        <path fill="#591D4B" fill-rule="nonzero" d="M155.007 48.372c.243-.472.363-1.001.654-1.449.427-.649 1.171-1.064 1.936-1.315 1.998-.657 6.22-1.611 7.48 0 .249.324.455.684.798.908.262.17.578.243.866.372.804.36 1.317 1.145 1.59 1.946.275.802.356 1.662.557 2.487.256 1.06.707 2.064 1.156 3.062.529 1.178 1.09 2.4 2.11 3.231 1.392 1.136 1.7 2.744 2.992 3.99 1.53 1.48 1.48 3.92.692 5.86-.104.254-.221.52-.18.791.04.271.251.518.45.734l.836.9c-1.978.456-4.217-.53-5.139-2.262-.284-.535-.473-1.151-.959-1.533-.435-.34-1.02-.421-1.562-.574-1.789-.506-3.288-2.065-3.344-3.843-.027-.836.246-1.671.122-2.499a2.693 2.693 0 0 0-.57-1.298c-.467-.582-1.172-.973-1.553-1.622-.645-1.085-.155-2.495-.62-3.66-.142-.357-.427-.714-.827-.741-.4-.028-.741.289-1.124.43-.795.295-1.656-.206-2.32-.72-.665-.515-1.415-1.099-2.262-.984-.559.075-1 .438-1.514.628-.381.14-1.153.265-1.486-.042-.704-.618.926-2.22 1.22-2.797z"/>
        <path fill="#000" fill-rule="nonzero" d="M172.315 67.01c-.286-.548-.473-1.18-.959-1.57-.435-.349-1.02-.434-1.564-.59-1.787-.517-3.286-2.116-3.344-3.939-.027-.856.246-1.714.124-2.563a2.812 2.812 0 0 0-.57-1.322c-.469-.597-1.174-.998-1.554-1.663-.644-1.111-.154-2.557-.62-3.752-.141-.365-.429-.73-.826-.76-.398-.03-.743.297-1.124.442-.796.303-1.658-.213-2.32-.739-.664-.525-1.417-1.126-2.262-1.01-.56.079-1.001.452-1.515.645-.38.143-1.154.272-1.488-.042-.7-.665.93-2.304 1.223-2.892.243-.486.364-1.027.656-1.486.015-.025.032-.05.05-.075a2.66 2.66 0 0 0-.56.622c-.29.46-.411.998-.654 1.486-.295.589-1.925 2.232-1.223 2.892.34.316 1.105.186 1.486.043.51-.194.956-.567 1.515-.643.85-.118 1.598.482 2.261 1.008.663.525 1.53 1.04 2.322.738.381-.145.714-.47 1.123-.44.408.03.68.394.828.76.464 1.194-.026 2.639.618 3.752.381.653 1.087 1.063 1.554 1.663.305.388.5.846.57 1.33.124.849-.15 1.705-.123 2.562.057 1.83 1.556 3.421 3.345 3.94.539.156 1.127.24 1.562.589.488.39.68 1.023.959 1.572.921 1.774 3.16 2.786 5.14 2.318l-.395-.436c-1.715.025-3.451-.93-4.235-2.44zM159.798 60.133c-.31.38-1.2 2.331-1.943 4.034-.696-.217-1.327-1.602-1.327-1.602l3.707-4.232c.38.42.13 1.114-.437 1.8z" opacity=".1"/>
        <path fill="#DCE7FF" fill-rule="nonzero" d="M159.798 59.16c-.31.38-1.2 2.331-1.943 4.034-.696-.215-1.327-1.602-1.327-1.602l3.707-4.23c.38.416.13 1.114-.437 1.797z"/>
        <path fill="#BE8B87" fill-rule="nonzero" d="M145.14 76.113l-1.234-4.583a.497.497 0 0 1 .024-.327.386.386 0 0 1 .213-.211c.191-.07.395.054.456.278l1.234 4.578-.122.958-.57-.693z"/>
        <path fill="#FFF" fill-rule="nonzero" d="M143.967 71.121c.197-.071.408.053.471.279l1.272 4.577-.095.718.092.11.126-.957-1.279-4.578c-.063-.224-.273-.348-.47-.278a.385.385 0 0 0-.195.168.48.48 0 0 1 .078-.039z" opacity=".1"/>
        <path fill="#EFC8C4" fill-rule="nonzero" d="M144.861 77.068l.972-.262-.142.796-.03.176-.284-.252z"/>
        <path fill="#727A9C" fill-rule="nonzero" d="M145.702 76.715a.167.167 0 0 1 .052-.043.074.074 0 0 1 .078 0c.012.013.021.028.029.044.022.038.06.063.103.069l-.025.166-.237-.236z"/>
        <path fill="#FFB0B1" fill-rule="nonzero" d="M143.889 74.861s2.43-.012 1.857.91c-.572.923-1.466 1.035-1.466 1.035l-.391-1.945z"/>
        <path fill="#9BDBE7" fill-rule="nonzero" d="M126.128 18.472h-.124c-4.917 0-9.266 2.604-11.767 6.446-2.502-3.842-6.85-6.446-11.768-6.446h-.123c-7.68.073-13.87 6.322-13.874 14.008 0 4.586 2.007 11.093 5.921 16.447 7.457 10.203 19.844 19.129 19.844 19.129s12.387-8.925 19.842-19.129C137.995 43.573 140 37.067 140 32.48c-.004-7.685-6.192-13.934-13.872-14.008zm-1.768 31.24a2.777 2.777 0 0 1-2.582-1.784h-2.94a.93.93 0 0 1-.875-.633l-.903-2.723-2.858 9.992a.925.925 0 0 1-.886.667h-.058a.913.913 0 0 1-.857-.765l-2.945-17.723-2.152 10.488a.918.918 0 0 1-.891.697h-4.141a.921.921 0 1 1 0-1.842h3.416l3.048-14.1a.925.925 0 0 1 1.813.076l3.007 18.079 2.561-8.94a.906.906 0 0 1 .862-.659h.018a.92.92 0 0 1 .874.633l1.633 4.916h2.237a2.762 2.762 0 0 1 5.37 1.157 2.763 2.763 0 0 1-2.746 2.47l-.005-.006z"/>
    </g>
</svg>
