<svg xmlns="http://www.w3.org/2000/svg" width="378" height="374" viewBox="0 0 378 374">
    <g fill="#FDE8E1" fill-rule="evenodd">
        <path d="M20 0h125c11.046 0 20 8.954 20 20v168.9a20 20 0 0 1-4.07 12.093l-125 164.673c-6.678 8.798-19.224 10.516-28.022 3.838A20 20 0 0 1 0 353.574V20C0 8.954 8.954 0 20 0zM233 0h125c11.046 0 20 8.954 20 20v168.9a20 20 0 0 1-4.07 12.093l-125 164.673c-6.678 8.798-19.224 10.516-28.022 3.838a20 20 0 0 1-7.908-15.93V20c0-11.046 8.954-20 20-20z"/>
    </g>
</svg>
